<svg xmlns="http://www.w3.org/2000/svg" width="24" height="24" viewBox="0 0 24 24">
  <g id="icon-accessibility" transform="translate(-460 -4598)">
    <g id="Group_1995" data-name="Group 1995" transform="translate(51.275 -45.686)" fill="currentColor">
      <path id="Path_1218" data-name="Path 1218" d="M93.393,94.78c-.249-.914-1.021-1.266-2.119-.962-2,.555-3.987,1.182-6.011,1.637a6.313,6.313,0,0,1-2.684-.008c-1.941-.435-3.844-1.04-5.763-1.576-1.31-.366-2.1-.055-2.358.925-.218.84.342,1.492,1.59,1.841,1.644.46,3.287.926,4.936,1.368a1.082,1.082,0,0,1,.954,1.045A9.812,9.812,0,0,1,81,104.313c-.943,1.767-1.762,3.6-2.622,5.412a1.456,1.456,0,0,0,.569,2.132c.8.388,1.513.077,2.005-.883.118-.229.223-.464.336-.7l2.639-5.445c1.025,2.105,1.985,4.088,2.956,6.066.507,1.032,1.224,1.358,2.04.955s1.005-1.188.518-2.212c-.764-1.6-1.489-3.227-2.318-4.8A10.172,10.172,0,0,1,85.9,99.385a1.3,1.3,0,0,1,1.068-1.412c1.707-.443,3.4-.937,5.094-1.432,1.065-.312,1.544-.973,1.329-1.761" transform="translate(337.313 4555.665)"/>
      <path id="Path_1219" data-name="Path 1219" d="M116.755,65.2a2.634,2.634,0,0,0,2.629-2.582,2.608,2.608,0,0,0-5.216-.042,2.634,2.634,0,0,0,2.587,2.624" transform="translate(304.465 4583.688)"/>
    </g>
  </g>
</svg>
