<svg width="48" height="49" viewBox="0 0 48 49" fill="none" xmlns="http://www.w3.org/2000/svg">
<path fill-rule="evenodd" clip-rule="evenodd" d="M24.9987 30.051C27.8609 30.0513 30.6589 29.1995 33.0388 27.6035C35.4188 26.0075 37.2738 23.7389 38.3693 21.0846C39.4649 18.4303 39.7516 15.5095 39.1934 12.6916C38.6352 9.87373 37.257 7.28528 35.2332 5.25361C33.2094 3.22195 30.6309 1.83832 27.8237 1.27772C25.0165 0.717108 22.1067 1.0047 19.4624 2.10412C16.818 3.20353 14.5578 5.0654 12.9676 7.45426C11.3775 9.84311 10.5287 12.6517 10.5287 15.5247C10.5291 19.377 12.0536 23.0714 14.7672 25.7955C17.4807 28.5196 21.161 30.0503 24.9987 30.051M32.5567 31.3322C30.294 32.7643 27.6736 33.5243 24.9987 33.5243C22.3237 33.5243 19.7033 32.7643 17.4406 31.3322C9.66222 33.7003 4 40.4588 4 48.5267C4 48.6903 4.04673 48.839 4.05207 48.9998H45.9466C45.9466 48.8377 45.9987 48.6889 45.9987 48.5267C45.9987 40.4588 40.3351 33.6976 32.5567 31.3335" fill="currentColor"/>
</svg>
