<svg width="64" height="64" viewBox="0 0 64 64" fill="none" xmlns="http://www.w3.org/2000/svg">
<path d="M39.3121 41.9237H16.5601C15.8612 41.9237 15.3176 42.4672 15.3176 43.166C15.3176 43.8649 15.8612 44.4085 16.5601 44.4085H39.3121C40.0109 44.4085 40.5545 43.8649 40.5545 43.166C40.5545 42.4672 40.0109 41.9237 39.3121 41.9237ZM39.3121 47.2816H16.5601C15.8612 47.2816 15.3176 47.8253 15.3176 48.5241C15.3176 49.223 15.8612 49.7664 16.5601 49.7664H39.3121C40.0109 49.7664 40.5545 49.223 40.5545 48.5241C40.5545 47.8253 40.0109 47.2816 39.3121 47.2816ZM39.3121 52.7173H16.5601C15.8612 52.7173 15.3176 53.2609 15.3176 53.9598C15.3176 54.6586 15.8612 55.2021 16.5601 55.2021H39.3121C40.0109 55.2021 40.5545 54.6586 40.5545 53.9598C40.5545 53.2609 40.0109 52.7173 39.3121 52.7173ZM39.3121 16.2208H30.7704C30.0715 16.2208 29.528 16.7644 29.528 17.3856C29.528 18.0845 30.0715 18.6281 30.6927 18.6281H30.7704H39.3121C40.0109 18.6281 40.5545 18.0845 40.4769 17.3856C40.5545 16.7644 40.0109 16.2985 39.3121 16.2208ZM42.1075 8.92163H13.8423C10.0374 8.92163 7.00889 11.9499 7.00889 15.7548V55.0468C7.00889 58.8518 10.0374 61.8802 13.8423 61.8802H42.1075C45.9125 61.8802 48.9409 58.8518 48.9409 55.0468V15.7548C48.9409 12.0276 45.9125 8.92163 42.1075 8.92163ZM46.2231 55.0468C46.2231 57.2987 44.3594 59.1624 42.1075 59.1624H13.8423C11.5904 59.1624 9.72671 57.2987 9.72671 55.0468V15.7548C9.72671 13.5029 11.5904 11.6394 13.8423 11.6394H42.1075C44.3594 11.6394 46.2231 13.5029 46.2231 15.7548V55.0468ZM39.3121 22.2777H30.848C30.1491 22.2777 29.6056 22.8212 29.6056 23.52C29.6056 24.2189 30.1491 24.7625 30.848 24.7625H39.3897C40.0886 24.7625 40.6322 24.2189 40.6322 23.52C40.6322 22.8212 40.0109 22.2777 39.3121 22.2777ZM50.8046 4.02952C49.2516 3.09769 47.3879 2.63174 45.6019 2.63174C45.5242 2.63174 45.369 2.63174 45.369 2.63174H16.0165V5.34956H45.4466C45.4466 5.34956 45.4466 5.34956 45.5242 5.34956C46.8443 5.34956 48.1644 5.73786 49.3292 6.35908C50.8046 7.2909 52.2024 8.84386 52.28 12.4935C52.28 53.1055 52.28 53.1055 52.28 53.1055H54.9978V12.4935C55.0755 8.06734 53.0565 5.3496 50.8046 4.02952ZM16.9484 34.0808H26.2666C27.1984 34.0808 27.8973 33.3818 27.8973 32.45V17.9291C27.8973 16.9973 27.1984 16.2986 26.2666 16.2986H16.9484C16.0166 16.2986 15.3176 16.9973 15.3176 17.9291V32.45C15.3176 33.3042 16.0942 34.0808 16.9484 34.0808Z" fill="currentColor"/>
</svg>
