<svg width="64" height="64" viewBox="0 0 64 64" fill="none" xmlns="http://www.w3.org/2000/svg">
<path d="M57.8828 20.9526C57.5735 21.7533 56.6456 22.1537 55.8723 21.7533L33.1384 11.3432C32.4425 11.0229 31.5919 11.0229 30.896 11.3432L9.09005 21.7533C9.01273 21.8334 9.01273 21.9135 9.09005 21.9936L17.5186 26.3978L31.2826 19.8315C32.0559 19.4311 32.9838 19.8315 33.2931 20.6323C33.6797 21.433 33.2931 22.394 32.5198 22.7143L20.9209 28.2396L29.3495 32.6439C30.5094 33.2845 31.9012 33.2845 33.1384 32.6439L47.8304 24.7162C48.6036 24.3158 49.5316 24.6361 49.9182 25.3568C49.9955 25.4369 49.9955 25.517 49.9955 25.5971C50.1502 25.8373 50.2275 26.0775 50.2275 26.3978V36.8079C50.2275 38.5697 49.2996 40.2513 47.8304 41.0521L37.8553 46.4173C33.7571 48.6594 28.8855 48.6594 24.7099 46.4973L18.5238 43.2942C17.7506 42.8938 16.9 42.7337 16.0494 42.8138V50.5813C16.0494 52.4231 15.1988 54.1848 13.6523 55.2258C12.2604 56.1067 10.5592 56.2668 9.09005 55.5461C7.77551 54.8254 6.77027 53.5442 6.38364 52.0227C5.99701 50.4212 6.30632 48.6594 7.23423 47.2981L10.1726 43.054C10.9459 41.9329 11.9511 41.0521 13.0337 40.4114V33.8451C13.0337 31.8431 13.6523 30.0013 14.8895 28.4799L7.69818 24.7963C6.15166 23.9154 5.53306 21.9135 6.38364 20.2319C6.69295 19.5912 7.23423 19.1108 7.85284 18.7905L29.5814 8.54052C31.0506 7.81983 32.8291 7.81983 34.2983 8.54052L57.0322 18.9506C57.8828 19.1909 58.1921 20.1518 57.8828 20.9526ZM13.0337 50.6614V44.4954C12.879 44.6556 12.7244 44.8157 12.647 45.0559L9.78599 49.3001C9.39936 49.8606 9.2447 50.6614 9.47668 51.3821C9.63133 52.0227 10.018 52.5032 10.5592 52.8235C11.1005 53.0637 11.6418 53.0637 12.1831 52.7434C12.647 52.1829 13.0337 51.3821 13.0337 50.6614ZM28.0349 35.5267L17.6732 30.0814C16.668 31.1224 16.0494 32.4838 16.0494 34.0052V39.6907C17.3639 39.6107 18.7558 39.931 19.9157 40.5716L26.1018 43.7747C29.3495 45.5364 33.2158 45.4563 36.4635 43.6946L46.4385 38.3294C46.9025 38.0091 47.2118 37.4486 47.2118 36.888V28.64L34.6076 35.4466C32.5198 36.5677 30.1227 36.5677 28.0349 35.5267Z" fill="currentColor"/>
</svg>
