<svg width="64" height="64" viewBox="0 0 64 64" fill="none" xmlns="http://www.w3.org/2000/svg">
<path d="M57.6574 14.0456V52.9058C57.6574 53.7104 57.0137 54.354 56.2092 54.354H7.45288C6.64832 54.354 6.00467 53.7104 6.00467 52.9058V14.0456C6.00467 13.241 6.64832 12.5974 7.45288 12.5974H15.0962V9.29869C15.0962 7.52866 16.5444 6.08046 18.3949 6H18.6362C20.4063 6 21.8545 7.44821 21.9349 9.29869V18.712C21.9349 20.4821 20.4867 21.9303 18.6362 22.0107H18.3949C16.6248 22.0107 15.1766 20.5625 15.0962 18.712V18.2293C15.0962 17.4247 15.7398 16.7811 16.5444 16.7811C17.349 16.7811 17.9926 17.4247 17.9926 18.2293V18.712C17.9926 18.9534 18.1535 19.1143 18.3949 19.1143H18.6362C18.8776 19.1143 19.0385 18.9534 19.0385 18.712V9.29869C19.0385 9.05732 18.8776 8.89641 18.6362 8.89641H18.3949C18.1535 8.89641 17.9926 9.05732 17.9926 9.29869V14.0456C17.9926 14.8501 17.349 15.4938 16.5444 15.4938H8.82063V51.4576H54.7609V15.4133H48.5658V18.6316C48.5658 20.4016 47.1176 21.8498 45.2672 21.9303H45.0258C43.2558 21.9303 41.8075 20.4821 41.7271 18.6316V15.4133H24.6704C23.8659 15.4133 23.2222 14.7697 23.2222 13.9651C23.2222 13.1606 23.8659 12.5169 24.6704 12.5169H41.8075V9.29869C41.8075 7.52866 43.2558 6.08046 45.1062 6H45.3476C47.1176 6 48.6463 7.44821 48.6463 9.29869V12.5974H56.2896C57.0137 12.5974 57.6574 13.241 57.6574 14.0456ZM45.7499 18.6316V9.29869C45.7499 9.05732 45.589 8.89641 45.3476 8.89641H45.1062C44.8649 8.89641 44.704 9.05732 44.704 9.29869V18.712C44.704 18.9534 44.8649 19.1143 45.1062 19.1143H45.3476C45.589 19.1143 45.7499 18.8729 45.7499 18.6316Z" fill="currentColor"/>
<path d="M44.543 31.8263L39.1525 37.1364L40.4398 44.6188C40.6007 45.4234 40.0375 46.1475 39.3134 46.2279C38.9916 46.3084 38.6698 46.2279 38.4284 46.067L31.7506 42.527L25.0727 46.067C24.3486 46.4693 23.544 46.1475 23.1418 45.5038C22.9004 45.2625 22.8199 44.9407 22.9004 44.6188L24.1877 37.1364L18.7971 31.8263C18.234 31.2631 18.234 30.3781 18.7971 29.8149C19.0385 29.5736 19.2799 29.4127 19.6017 29.4127L27.0841 28.2863L30.4633 21.528C30.7851 20.8039 31.6701 20.5625 32.3942 20.8843C32.6356 21.0452 32.8769 21.2866 33.0378 21.528L36.417 28.2863L43.8994 29.4127C44.7039 29.4931 45.1867 30.2172 45.1062 31.0218C44.9453 31.3436 44.7844 31.6654 44.543 31.8263ZM40.5202 31.8263L35.1297 31.0218C34.647 30.9413 34.2447 30.7 34.0838 30.2172L31.6701 25.3094L29.2564 30.2172C29.015 30.6195 28.6128 30.9413 28.2105 31.0218L22.8199 31.8263L26.6818 35.6078C27.0037 35.9296 27.1646 36.4123 27.0841 36.8951L26.1991 42.2052L31.0264 39.711C31.4287 39.4697 31.9115 39.4697 32.3137 39.711L37.1411 42.2052L36.2561 36.8146C36.1756 36.3319 36.3365 35.8491 36.6584 35.5273L40.5202 31.8263Z" fill="currentColor"/>
</svg>
