<svg width="64" height="64" viewBox="0 0 64 64" fill="none" xmlns="http://www.w3.org/2000/svg">
<path d="M57 23.5746V56.8205C57 57.6058 56.3019 58.3039 55.5166 58.3039H36.0577C35.6214 58.3039 35.2724 58.1294 35.0106 57.8676L30.9094 53.9409C30.8221 53.8536 30.8221 53.7664 30.7349 53.7664L15.5517 38.2342H15.4645C11.7123 34.0457 12.0613 27.5013 16.2498 23.7491C18.1695 22.0912 20.5255 21.1313 23.056 21.1313C25.412 21.1313 27.6808 21.8294 29.6005 23.2255C30.4731 23.8364 31.2584 24.6217 31.8693 25.4943C32.4801 24.6217 33.2654 23.8364 34.138 23.2255C36.0577 21.8294 38.3265 21.1313 40.6825 21.1313C46.3543 21.1313 50.9791 25.7561 50.8918 31.4279C50.8918 33.9585 49.932 36.4017 48.274 38.2342C48.274 38.2342 48.274 38.2342 48.1868 38.3214L37.3666 49.4907C36.7558 50.1015 35.7959 50.1015 35.2724 49.4907C34.6616 48.8798 34.6616 47.92 35.2724 47.3964L46.2671 36.14C48.8849 33.1731 48.6231 28.5484 45.6563 25.9306C44.3474 24.709 42.6022 24.0981 40.857 24.0981C37.2793 24.0981 34.138 26.3669 33.4399 29.421C33.2654 30.119 32.6546 30.6426 31.9565 30.6426C31.2584 30.6426 30.6476 30.119 30.4731 29.421C30.1241 27.8503 29.2515 26.5414 27.9426 25.5815C26.5464 24.6217 24.8885 24.0981 23.1433 24.0981C19.1294 24.0981 15.9008 27.3267 15.9008 31.3407C15.9008 33.0859 16.5116 34.8311 17.7332 36.14L33.0909 51.7594C33.1781 51.8467 33.1781 51.8467 33.2654 51.9339L36.7558 55.3371H54.0332V24.3599L31.9565 9.26401L9.35629 24.7962C8.65821 25.3198 7.69836 25.1453 7.26206 24.4472C6.82576 23.7491 6.91302 22.7892 7.6111 22.3529C7.6111 22.3529 7.6111 22.3529 7.69836 22.3529L31.1712 6.20993C31.6947 5.86089 32.3928 5.86089 32.9164 6.20993L56.3892 22.2657C56.7382 22.6147 57 23.051 57 23.5746Z" fill="currentColor"/>
</svg>
