<svg width="64" height="64" viewBox="0 0 64 64" fill="none" xmlns="http://www.w3.org/2000/svg">
<path d="M55 32.48C55 33.12 54.5183 33.76 53.8761 33.92C53.7958 33.92 53.6353 33.92 53.555 33.92C52.993 33.92 52.5113 33.6 52.2705 33.04C50.7452 29.6 46.7312 28.08 43.2792 29.6C41.9948 30.16 40.9511 31.12 40.2286 32.32C39.8272 32.96 38.9442 33.2 38.3019 32.8C38.1414 32.72 37.9005 32.48 37.8202 32.32C37.2583 31.44 36.5358 30.64 35.6527 30.08C35.0105 29.68 34.7696 28.8 35.171 28.16C35.5724 27.52 36.4555 27.28 37.0977 27.68C37.8202 28.16 38.4625 28.64 39.0244 29.28C42.3159 25.84 47.6143 25.2 51.548 27.92C49.2199 19.04 41.192 12.88 32.0401 12.88C22.808 12.88 14.7801 19.04 12.452 27.92C16.3857 25.2 21.6841 25.84 24.9756 29.28C26.822 27.36 29.3106 26.24 32.0401 26.24C32.8429 26.24 33.4852 26.88 33.4852 27.68V49.92C33.4852 53.28 30.7557 56 27.3839 56C24.0122 56 21.2827 53.28 21.2827 49.92C21.2827 49.12 21.925 48.56 22.7277 48.56C23.4503 48.56 24.0925 49.2 24.0925 49.92C24.0925 51.76 25.5375 53.2 27.3839 53.2C29.2304 53.2 30.6754 51.76 30.6754 49.92V29.2C29.9529 29.36 29.3106 29.6 28.6684 29.92C27.7051 30.48 26.822 31.28 26.26 32.32C25.8586 32.96 24.9756 33.2 24.3333 32.8C24.1728 32.72 23.9319 32.48 23.8517 32.32C21.925 29.12 17.7504 28.08 14.5393 30C13.3351 30.72 12.3717 31.76 11.8098 33.04C11.4084 33.76 10.6056 34.16 9.88307 33.84C9.32112 33.6 9 33.04 9 32.48C9.24084 20.56 18.6335 10.8 30.5951 10.08V9.36C30.5951 8.56 31.2373 8 32.0401 8C32.7627 8 33.4049 8.64 33.4049 9.36V10.08C45.3665 10.8 54.7592 20.56 55 32.48Z" fill="currentColor"/>
</svg>
