<svg width="64" height="64" viewBox="0 0 64 64" fill="none" xmlns="http://www.w3.org/2000/svg">
<path d="M31.627 36.6878C27.1497 36.6878 23.5171 33.0553 23.5171 28.5779C23.5171 24.1006 27.1497 20.468 31.627 20.468C36.1044 20.468 39.7369 24.1006 39.7369 28.5779C39.7369 33.0553 36.1044 36.6878 31.627 36.6878ZM31.627 23.5092C28.8392 23.5092 26.4738 25.7901 26.4738 28.6624C26.4738 31.5347 28.7547 33.8156 31.627 33.8156C34.4993 33.8156 36.7802 31.5347 36.7802 28.6624C36.6957 25.7901 34.4148 23.5092 31.627 23.5092Z" fill="currentColor"/>
<path d="M31.627 57.4695C31.2046 57.4695 30.8667 57.3005 30.5288 57.0471C29.3461 55.8644 27.9944 54.5972 26.5583 53.2456C24.8687 51.6405 23.1792 50.0354 21.4051 48.3458C20.8138 47.7545 20.8138 46.8252 21.4051 46.2339C21.9965 45.6425 22.9257 45.6425 23.5171 46.2339C25.2067 47.9234 26.8962 49.5285 28.5858 51.1336C29.5995 52.0629 30.6133 52.9921 31.5425 53.9214C32.3873 53.0766 33.401 52.1474 34.4148 51.2181C38.2163 47.839 41.6799 44.2064 44.8901 40.3204C48.2692 35.9275 49.9588 31.957 49.9588 28.24C49.9588 18.1026 41.7644 9.90821 31.627 9.90821C26.7273 9.82373 22.081 11.6823 18.6173 15.1459C15.1537 18.6095 13.2107 23.2558 13.2952 28.1555C13.2952 32.126 15.1537 36.3499 18.9553 41.0807C19.4621 41.7565 19.2932 42.6858 18.6173 43.1927C18.026 43.615 17.0967 43.5306 16.5899 42.9392C12.366 37.6171 10.254 32.8018 10.254 28.1555C10.254 16.3286 19.8 6.78252 31.627 6.78252C40.1593 6.78252 47.9313 11.9357 51.3104 19.7922C52.4087 22.411 53 25.2833 53 28.071C53 32.4639 51.1415 37.0257 47.34 42.01C44.0453 46.0649 40.4127 49.8664 36.5267 53.33C35.1751 54.5972 33.8234 55.8644 32.7252 56.9626C32.3873 57.3005 31.9649 57.4695 31.627 57.4695Z" fill="currentColor"/>
</svg>
