<svg width="64" height="64" viewBox="0 0 64 64" fill="none" xmlns="http://www.w3.org/2000/svg">
<path d="M11.9245 54.33C11.8429 55.8728 10.5369 57.0909 8.98598 57.0097C7.51671 57.1721 6.12904 56.0352 6.04741 54.5736C5.88416 53.1119 7.02692 51.7315 8.49619 51.6503C8.65944 51.6503 8.82272 51.6503 8.98598 51.6503C10.5369 51.5691 11.9245 52.7871 11.9245 54.33Z" fill="#F2692A"/>
<path d="M59.4287 51.7315C59.5919 53.3555 58.3675 54.736 56.735 54.8984C55.1025 55.0608 53.7148 53.8428 53.5516 52.2187C53.3883 50.5947 54.6127 49.2142 56.2452 49.0518C56.3269 49.0518 56.4085 49.0518 56.4902 49.0518C58.0411 48.9706 59.347 50.1887 59.4287 51.7315Z" fill="#FFC900"/>
<path d="M16.5775 35.9783C16.904 37.2775 16.0877 38.5767 14.8633 38.9015C14.7817 38.9015 14.7817 38.9015 14.7001 38.9015C13.4757 39.2263 5.55794 41.094 3.59891 41.5C1.06851 42.0684 0.170646 39.47 0.660401 37.9271C1.15016 36.3843 4.00707 36.0595 6.12935 35.8159C8.25162 35.5722 11.0269 34.5978 13.2308 34.1918C15.3531 33.7046 16.2509 34.9226 16.5775 35.9783Z" fill="#AE0B24"/>
<path d="M36.411 44.9105C37.717 44.9917 38.7782 45.8849 39.0231 47.1841C39.1863 47.6713 39.4312 49.0518 39.8393 50.5946C40.8188 53.7615 42.2065 57.9029 42.2065 58.7149C42.2065 59.9329 41.2269 61.3133 40.0842 61.3133C38.6965 61.1509 37.5538 60.0953 37.2273 58.7961C35.8396 53.0307 35.2682 50.9194 34.6152 48.6458C33.9622 46.2909 35.1866 44.9105 36.411 44.9105Z" fill="#0D988C"/>
<path d="M28.4937 47.4277C30.0446 47.4277 30.6976 48.727 30.6976 50.0262C30.4527 55.548 30.5343 55.142 30.2894 60.7449C30.3711 62.2878 29.31 63.587 27.7591 63.6682C27.6774 63.6682 27.6774 63.6682 27.5958 63.6682C25.7184 63.6682 24.9022 61.9629 24.9022 60.6637C25.147 55.1419 25.8 55.548 25.9633 50.0262C25.9633 48.6458 27.0244 47.5089 28.4937 47.4277C28.412 47.4277 28.412 47.4277 28.4937 47.4277Z" fill="#AE0B24"/>
<path d="M21.8829 47.0217C21.9645 46.2097 21.9645 45.2353 21.4748 44.8293C20.6585 44.0985 18.9444 44.2608 18.373 44.2608C17.4751 44.2608 14.8631 44.0985 9.06763 44.0985C8.16974 44.1797 7.59835 44.9105 7.67998 45.8037C7.67998 47.0217 7.76163 46.4533 7.76163 47.6714C7.92488 48.6458 8.82277 49.2954 9.80228 49.133C12.0878 48.9706 14.455 48.9706 16.7405 49.133C16.7405 49.133 16.414 52.2187 16.0058 56.5224C15.8426 57.2532 16.1691 58.0652 16.8221 58.4713C17.5567 58.9585 18.373 59.0397 19.1893 58.7961C19.8423 58.4712 20.332 57.8217 20.4952 57.0908C20.7401 54.8172 21.0666 53.3555 21.3115 51.4878C21.7196 48.5646 21.8829 47.2653 21.8829 47.0217Z" fill="#F2692A"/>
<path d="M46.8586 34.0294C46.8586 32.243 47.7564 31.5122 49.7155 31.837C55.919 32.9738 59.9187 33.055 61.3063 33.2986C63.1021 33.6234 64 34.273 64 35.9783C64 37.3587 62.9389 38.4143 61.6329 38.4955C61.5512 38.4955 61.388 38.4955 61.3063 38.4955C59.8371 38.2519 50.4501 36.5467 49.2257 36.3031C47.9197 36.1407 46.8586 35.8159 46.8586 34.0294Z" fill="#0D988C"/>
<path d="M56.8988 41.8248C54.45 41.5 52.3277 41.2564 50.6135 41.094C48.4097 40.8504 47.1853 40.688 46.5323 40.6068C45.063 40.4444 43.5121 40.688 42.9407 41.5C42.5326 42.0684 43.5937 45.8037 44.1651 47.3466C44.8997 49.133 45.4711 51.1631 46.6955 54.0051C46.8588 54.736 47.5118 55.3044 48.328 55.3856C49.1443 55.3856 49.9605 55.142 50.6135 54.6548C51.2666 54.0864 51.5114 53.1119 51.0217 52.3811C49.5524 48.9706 47.9199 44.9917 47.9199 44.9917C47.9199 44.9917 52.1644 45.8037 56.5722 46.4533C57.3885 46.6969 58.2864 46.2097 58.6129 45.3977C58.8578 44.7481 58.9394 44.0985 58.8577 43.4488C58.6129 42.6368 57.8783 41.906 56.8988 41.8248Z" fill="#FFC900"/>
<path d="M10.7002 10.2371C10.9451 8.69423 9.88399 7.2326 8.3331 7.07019C6.78221 6.74538 5.31293 7.63861 4.9048 9.18146C4.65992 10.7243 5.72103 12.1859 7.27192 12.3483C8.82281 12.6732 10.3737 11.7799 10.7002 10.2371Z" fill="#0D988C"/>
<path d="M57.3882 9.34384C57.2249 7.71979 55.8373 6.50177 54.2048 6.66417C52.7355 6.74538 51.5927 7.8822 51.5111 9.34384C51.6744 10.9679 53.062 12.1859 54.6945 12.0235C56.0822 11.9423 57.2249 10.8055 57.3882 9.34384Z" fill="#AE0B24"/>
<path d="M0.0890438 26.0716C0.415547 24.8535 1.72155 24.2851 3.19082 24.5287C6.04772 24.8536 7.51701 25.016 8.82302 25.2596C10.2923 25.5032 11.6799 25.6656 14.8634 26.0716C16.3326 26.3964 16.8224 27.6144 16.4959 28.9949C16.0877 30.3753 14.7001 31.1873 13.2308 30.8625C7.1089 29.9693 8.00679 30.1317 1.80322 29.2385C0.333951 28.9137 -0.23746 27.858 0.0890438 26.0716Z" fill="#FFC900"/>
<path d="M35.2683 17.0581C36.4927 17.0581 37.5538 16.0025 37.5538 14.7844V14.7032C37.7987 10.3183 37.8803 9.50628 38.0436 6.50179C38.1252 5.77097 38.2885 4.95896 38.3701 3.90333C38.3701 2.60409 37.6354 1.30485 36.0029 1.30485C34.3704 1.30485 33.799 2.60408 33.799 3.98451C33.5541 7.80102 33.3909 8.36945 33.146 10.6431C33.0644 11.5363 33.0644 13.2416 32.9828 14.7844C32.9828 16.0837 33.9623 17.0581 35.1867 17.1393C35.2683 17.0581 35.2683 17.0581 35.2683 17.0581Z" fill="#F2692A"/>
<path d="M26.9429 17.1393C28.2489 17.1393 29.1468 15.7589 29.1468 14.3784C28.7387 8.28824 28.4938 8.28824 28.004 2.19806C28.0857 1.06123 27.2694 0.0867933 26.1267 0.00559101C26.045 0.00559101 25.9634 0.00559101 25.8818 0.00559101C24.8207 -0.0756113 23.8411 0.736427 23.7595 1.87326C23.7595 1.95446 23.7595 2.11686 23.7595 2.19806C24.1676 8.28824 23.6779 8.36945 24.086 14.4596C24.3309 15.8401 25.4737 16.9769 26.9429 17.1393Z" fill="#FFC900"/>
<path d="M20.2503 16.7333C19.7606 12.2671 19.8422 12.1859 19.3525 7.7198C19.1892 6.74537 18.6178 5.68974 16.0058 6.42056C14.9446 6.66416 14.2917 7.63861 14.2917 8.69424C15.0263 12.4295 15.2712 13.404 15.7609 15.6776C12.7408 15.6776 9.80224 15.9212 8.16972 15.7588C7.19021 15.5152 6.12908 16.1649 5.88421 17.2205C5.63933 17.8701 5.31281 19.9814 6.5372 20.7934C7.76159 21.5242 12.9856 20.3062 17.9648 20.225C18.1281 20.225 18.373 20.225 18.5362 20.225H18.7811C18.9443 20.225 19.026 20.225 19.1892 20.1438C19.3525 20.1438 19.5974 20.1438 19.7606 20.1438C20.8217 19.819 20.4136 17.7077 20.2503 16.7333Z" fill="#0D988C"/>
<path d="M45.8792 25.9903C45.716 26.8023 46.4506 28.5076 47.8382 28.5076C49.2259 28.5076 58.2863 27.2896 59.4291 27.1272C60.5719 26.9647 62.286 26.64 62.286 25.0159C62.3676 23.5543 61.3065 22.3362 59.8372 22.255C58.6129 22.255 49.9605 23.3919 48.2464 23.7167C47.022 23.8791 46.0425 24.7723 45.8792 25.9903Z" fill="#F2692A"/>
<path d="M56.7356 16.3273C56.5723 15.6776 56.4091 14.622 54.4501 14.7032C51.6748 14.7844 48.9811 14.9468 46.2058 15.3528C46.8588 13.5664 47.5119 11.9423 48.7362 8.53183C49.226 7.23259 49.0627 6.33938 47.2669 5.44615C46.1242 4.87773 44.8182 5.36494 44.2468 6.50177C44.2468 6.58297 44.1652 6.58298 44.1652 6.66419C42.9408 9.83108 41.798 13.0792 40.9001 16.4085C40.492 17.4641 40.1655 19.4129 40.6553 19.8189C41.3083 20.3874 43.104 20.3062 43.757 20.225C49.5525 19.4941 49.1444 20.1438 54.8582 19.4129C55.6744 19.2505 57.3886 18.6009 56.7356 16.3273Z" fill="#AE0B24"/>
</svg>
