<svg width="64" height="64" viewBox="0 0 64 64" fill="none" xmlns="http://www.w3.org/2000/svg">
<path d="M19.225 15.6375H15.725C15.9 18.6125 16.5125 21.5875 17.475 24.475L20.275 21.675C19.75 19.75 19.4 17.7375 19.225 15.6375ZM42.2375 43.725L39.4375 46.525C42.325 47.4875 45.3 48.1 48.275 48.275V44.775C46.2625 44.6 44.25 44.25 42.2375 43.725ZM23.8625 13.3625C23.8625 16.1625 24.3 18.9625 25.175 21.675C25.4375 22.55 25.175 23.425 24.5625 24.0375L19.4 29.2C22.8125 35.85 28.15 41.1875 34.8 44.6L39.9625 39.4375C40.4 39 41.0125 38.7375 41.625 38.7375C41.8875 38.7375 42.15 38.7375 42.325 38.825C45.0375 39.7 47.8375 40.1375 50.6375 40.1375C51.95 40.1375 53 41.1875 53 42.5V50.6375C53 51.95 51.95 53 50.6375 53C28.7625 53 11 35.2375 11 13.3625C11 12.05 12.05 11 13.3625 11H21.5C22.8125 11 23.8625 12.05 23.8625 13.3625Z" fill="currentColor"/>
</svg>
