<svg width="64" height="64" viewBox="0 0 64 64" fill="none" xmlns="http://www.w3.org/2000/svg">
<path d="M58.7992 16.6871V47.3696V47.5101V47.5803V47.6505C58.7992 47.6505 58.7992 47.6505 58.7992 47.7207C58.7992 47.7909 58.7992 47.7207 58.7992 47.7207C58.7992 47.7207 58.7992 47.7207 58.7992 47.7909C58.7992 47.8611 58.7992 47.7909 58.7992 47.7909C58.7992 47.7909 58.7992 47.7909 58.7992 47.8611C58.7992 47.8611 58.7992 47.8611 58.7992 47.9313V48.0015V48.0718C58.5885 48.493 58.2375 48.7739 57.8162 48.8441H57.746H57.6758H57.6056H57.5354H57.4652C57.3247 48.8441 57.1141 48.8441 56.9737 48.8441C55.9907 48.8441 55.0077 48.8441 53.9546 48.8441C50.2334 48.7037 46.4419 48.8441 42.7207 49.2654C38.9995 49.8271 36.6123 50.8802 35.2783 52.6355L35.2081 52.7057C35.2081 52.7057 35.2081 52.7057 35.2081 52.7759L35.1378 52.8462H35.0676H34.9974H34.9272H34.857H34.7868H34.7166H34.6464H34.5761H34.5059L34.0847 53.127H34.0145H30.7847C30.3634 53.127 29.9422 52.9164 29.6613 52.5653C28.3273 50.8802 25.9401 49.7568 22.2189 49.1951C18.4977 48.7739 14.7765 48.6335 10.985 48.7739C9.93185 48.7739 8.94889 48.7739 7.96593 48.7739C7.8255 48.7739 7.61487 48.7739 7.47444 48.7739C7.40423 48.7739 7.40423 48.7739 7.33402 48.7739H7.26381H7.1936H7.12339C7.12339 48.7739 7.12339 48.7739 7.05318 48.7739H6.98296C6.98296 48.7739 6.98296 48.7739 6.98296 48.7037V48.6335V48.5632L6 47.5101C6 47.5101 6 47.5101 6 47.4399C6 47.3696 6 47.4399 6 47.4399V16.6871C6 15.9148 6.6319 15.2829 7.40423 15.2829C8.17656 15.2829 8.80847 15.9148 8.80847 16.6871V45.8952C9.51058 45.8952 10.2127 45.8952 10.9148 45.8952C14.9169 45.825 19.1296 45.825 22.921 46.3867C19.8317 45.1229 16.5318 44.491 13.1616 44.491C13.0212 44.491 12.8105 44.491 12.6701 44.491C12.5999 44.491 12.5999 44.491 12.5297 44.491H12.4595H12.3893H12.3191H12.2488H12.1786C12.1786 44.491 12.1786 44.491 12.1786 44.4208C12.1786 44.3505 12.1786 44.4208 12.1786 44.4208C12.1786 44.4208 12.1786 44.4208 12.1786 44.3505V44.2803V44.2101V44.1399C12.1786 44.1399 12.1786 44.1399 12.1786 44.0697C12.1786 43.9995 12.1786 44.0697 12.1786 44.0697V12.4744C12.1786 12.4744 12.1786 12.4744 12.1786 12.4042C12.1786 12.4042 12.1786 12.4042 12.1786 12.334C12.1786 12.334 12.1786 12.334 12.1786 12.2638C12.1786 12.2638 12.1786 12.2638 12.1786 12.1936C12.1786 12.1234 12.1786 12.1936 12.1786 12.1936C12.1786 12.1936 12.1786 12.1936 12.1786 12.1234C12.1786 12.0532 12.1786 12.1234 12.1786 12.1234H12.2488H12.3191H12.3893H12.4595H12.5297H12.5999C12.8105 12.1234 12.951 12.1234 13.1616 12.1234C17.3041 11 21.3061 11.8425 24.9572 13.5276C27.7656 14.7914 30.2932 16.6169 32.3996 18.8637C34.5059 16.6169 37.0336 14.7914 39.842 13.5276C43.493 11.8425 47.4951 11 51.5674 11C51.778 11 51.9184 11 52.1291 11H52.1993H52.2695H52.3397H52.4099H52.4801C52.4801 11 52.4801 11 52.4801 11.0702C52.4801 11.1404 52.4801 11.0702 52.4801 11.0702C52.4801 11.0702 52.4801 11.0702 52.4801 11.1404C52.4801 11.2106 52.4801 11.1404 52.4801 11.1404C52.4801 11.1404 52.4801 11.1404 52.4801 11.2106C52.4801 11.2106 52.4801 11.2106 52.4801 11.2808C52.4801 11.2808 52.4801 11.2808 52.4801 11.3511V14.2297L56.2716 14.1595C58.0971 15.2829 58.7992 15.9148 58.7992 16.6871ZM23.7636 16.1255C20.7444 14.7914 17.4445 14.0191 14.1446 13.8787V41.6825C17.8658 41.7527 21.587 42.5953 24.9572 44.1399C27.2039 45.1229 29.2401 46.4569 31.0656 48.142V21.602C29.0996 19.285 26.572 17.3893 23.7636 16.1255ZM53.8141 45.8952C54.5163 45.8952 55.2184 45.8952 55.9205 45.8952V18.1616L52.1291 18.2318H52.0589H51.9886C51.4972 18.2318 51.0057 17.8807 50.795 17.3893V17.3191V17.2488V17.1786C50.795 17.1786 50.795 17.1786 50.795 17.1084V17.0382C50.795 17.0382 50.795 17.0382 50.795 16.968C50.795 16.8978 50.795 16.968 50.795 16.968C50.795 16.968 50.795 16.968 50.795 16.8978C50.795 16.8276 50.795 16.8978 50.795 16.8978C50.795 16.8978 50.795 16.8978 50.795 16.8276C50.795 16.7574 50.795 16.8276 50.795 16.8276V13.8787C47.4249 13.9489 44.1951 14.7212 41.1058 16.1255C38.2974 17.3191 35.84 19.1446 33.9442 21.3913V47.9313C35.6995 46.3867 37.7357 45.1229 39.842 44.1399C43.2824 42.5953 46.9334 41.7527 50.6546 41.6825V21.7424C50.6546 20.9701 51.2865 20.2679 52.0589 20.2679C52.8312 20.2679 53.5333 20.8998 53.5333 21.6722V21.7424V43.0867C53.5333 43.8591 52.9014 44.491 52.0589 44.491C51.9886 44.491 51.8482 44.491 51.778 44.491C51.7078 44.491 51.6376 44.491 51.4972 44.491C48.1972 44.491 44.8271 45.1229 41.7377 46.3867C45.5994 45.825 49.8121 45.8952 53.8141 45.8952Z" fill="currentColor"/>
</svg>
