<svg width="64" height="64" viewBox="0 0 64 64" fill="none" xmlns="http://www.w3.org/2000/svg">
<path d="M32 57C31.8381 57 31.6761 57 31.4332 56.9167L28.1943 55.5833C18.7206 51.8333 12.4049 42.4167 12.2429 31.9167L12 17.25C12 16.4167 12.6478 15.75 13.4575 15.75C13.5385 15.75 13.5385 15.75 13.6194 15.75L15.2389 15.9167C18.3158 16.1667 21.3927 15.5833 24.1457 14.0833C26.8988 12.6667 29.247 10.4167 30.8664 7.75C31.0283 7.25 31.5142 7 32 7C32.4858 7 32.9717 7.25 33.2146 7.66667C34.834 10.3333 37.1822 12.5833 39.9352 14C42.6883 15.4167 45.7652 16.0833 48.8421 15.8333L50.4615 15.6667C51.2713 15.5833 51.919 16.25 52 17C52 17.0833 52 17.0833 52 17.1667L51.919 23.5C51.919 24 51.6761 24.4167 51.2713 24.75L48.0324 27C42.6073 31.1667 38.0729 36.4167 34.6721 42.3333L32.8907 45.3333C32.4858 46 31.5951 46.25 30.9474 45.8333C30.9474 45.8333 30.8664 45.8333 30.8664 45.75L22.6883 39.8333C22.0405 39.3333 21.8785 38.4167 22.3644 37.75C22.8502 37.0833 23.7409 36.9167 24.3887 37.4167L31.2713 42.4167L32.1619 40.8333C35.8057 34.5 40.583 29 46.332 24.5833C46.332 24.5833 46.332 24.5833 46.413 24.5L49.085 22.6667L49.166 18.75C45.5223 19.0833 41.9595 18.3333 38.7206 16.6667C36.1296 15.3333 33.8623 13.4167 32.081 11.0833C30.2996 13.4167 28.0324 15.3333 25.4413 16.6667C22.6883 18.0833 19.6113 18.8333 16.5344 18.8333C16.0486 18.8333 15.4818 18.8333 14.996 18.75L15.1579 31.8333C15.2389 41.1667 20.8259 49.5 29.247 52.8333L32 53.9167L34.753 52.8333C43.1741 49.5 48.7611 41.1667 48.9231 31.9167V29.6667C48.9231 28.8333 49.6518 28.1667 50.3806 28.25C51.1903 28.25 51.7571 28.9167 51.7571 29.75V32C51.5951 42.5 45.2794 51.8333 35.7247 55.6667L32.4049 57C32.4049 57 32.2429 57 32 57Z" fill="currentColor"/>
</svg>
