<svg width="64" height="64" viewBox="0 0 64 64" fill="none" xmlns="http://www.w3.org/2000/svg">
<path d="M62.9253 47.1277C62.8628 47.9654 62.1138 48.5638 61.3023 48.504C60.4283 48.4441 59.8041 47.7261 59.8665 46.9481V46.8883C60.2411 43.4774 59.055 40.0665 56.6205 37.5532C53.4994 34.5013 49.1922 32.7659 44.7602 32.8258C40.7027 32.8856 36.8325 34.5013 34.0859 37.3138C34.9598 38.5106 35.6464 39.8271 36.0834 41.2633C36.6452 42.879 37.1446 45.2726 36.3331 47.1875C35.584 48.863 33.961 49.8803 31.7762 50H31.7138L31.5889 49.9402H31.5265H31.4641H31.4017C31.3392 49.9402 31.2768 49.9402 31.2144 49.8803H31.152C28.5302 49.1622 27.5314 47.6064 27.1569 46.4096C26.1581 43.2979 28.2181 39.5279 29.9659 37.254C27.1569 34.4415 23.2867 32.8258 19.2916 32.7659C17.1692 32.7659 15.1093 33.125 13.1117 33.8431C11.239 34.5013 9.55362 35.5784 8.11789 36.8949C5.49613 39.4082 4.12282 42.879 4.12282 46.8883C4.12282 47.7261 3.43617 48.3843 2.56225 48.3843C1.68833 48.3843 1.00167 47.7261 1.00167 46.8883C0.93925 42.1609 2.62467 37.9721 5.87067 34.8604C7.61851 33.1848 9.67847 31.9282 11.9257 31.0904C12.3002 30.9707 12.6748 30.7912 13.1117 30.6715C8.92939 27.4401 8.24274 21.5159 11.6136 17.5066C14.9844 13.4973 21.1643 12.839 25.3466 16.1303C29.529 19.4215 30.2156 25.2859 26.8448 29.2952C26.3454 29.8936 25.7836 30.4322 25.1594 30.851C27.7187 31.7486 30.0284 33.1848 31.9635 35.0399C33.8986 33.1848 36.2082 31.8085 38.7676 30.851C34.4604 27.6795 33.6489 21.8151 36.9573 17.6861C40.2657 13.5571 46.3832 12.7792 50.6904 15.9508C54.9975 19.1223 55.809 24.9867 52.5006 29.1157C52.0012 29.7141 51.4394 30.2526 50.8776 30.7314C51.4394 30.9109 52.0012 31.0904 52.5631 31.3298C54.9975 32.2872 57.1824 33.7234 58.9302 35.5186C61.8641 38.6303 63.3622 42.879 62.9253 47.1277ZM19.2292 29.8338C22.9121 29.8338 25.9084 26.9614 25.9084 23.4308C25.9084 19.9002 22.9121 17.0279 19.2292 17.0279C15.5462 17.0279 12.5499 19.9002 12.5499 23.4308C12.5499 26.9614 15.5462 29.8338 19.2292 29.8338ZM33.0871 42.1609C32.775 41.3231 32.4004 40.4854 31.901 39.7074C31.4017 40.4255 30.9647 41.1436 30.6526 41.9215C30.0284 43.4175 29.7787 44.6742 30.0284 45.5718C30.1532 45.9907 30.4653 46.5891 31.7138 47.008C32.8374 46.8883 33.2119 46.4096 33.3368 46.0505C33.7737 45.1529 33.6489 43.7766 33.0871 42.1609ZM44.6978 29.8338C48.3807 29.8338 51.377 26.9614 51.377 23.4308C51.377 19.9002 48.3807 16.968 44.6978 17.0279C41.0148 17.0279 38.0185 19.9002 38.0185 23.4308C38.0185 26.9614 41.0148 29.8338 44.6978 29.8338Z" fill="currentColor"/>
</svg>
