<svg width="64" height="64" viewBox="0 0 64 64" fill="none" xmlns="http://www.w3.org/2000/svg">
<path d="M60.9982 47.936C60.9982 48.7156 60.3159 49.3653 59.4971 49.3653C58.6783 49.3653 57.996 48.7156 57.996 47.936C57.996 43.4529 56.4949 39.6195 53.5609 36.8257C51.9915 35.3313 50.081 34.1618 48.0341 33.3822C45.8507 32.6025 43.5308 32.1477 41.1427 32.2127C36.9805 32.2777 32.9548 33.837 29.8844 36.5658C31.8631 38.7099 33.0913 41.5037 33.2277 44.3625C33.296 44.9472 33.5007 47.5461 31.7949 49.3653C30.7032 50.4699 29.202 51.0546 27.6327 50.9896H27.4962C25.5175 51.1196 23.6753 50.0151 22.8565 48.3258C21.833 46.1817 22.4471 43.3879 22.8565 41.8935C23.4023 40.0743 24.2893 38.3201 25.4493 36.8257C23.2659 35.5263 20.673 34.8765 18.0802 34.9415C18.012 34.9415 17.9438 34.9415 17.8755 34.9415C17.7391 34.9415 17.6026 34.9415 17.4661 34.9415C11.0523 35.2664 6.00316 40.3342 6.00316 46.4416V48.7156C6.00316 49.4953 5.32084 50.145 4.50205 50.145C3.68327 50.145 3.00095 49.4953 3.00095 48.7156V46.4416C2.93272 40.5941 6.54901 35.3963 12.144 33.1223C8.59598 30.3935 8.11835 25.4556 10.9841 22.077C13.8498 18.6985 19.0355 18.2437 22.5835 20.9725C26.1316 23.7013 26.6092 28.6392 23.7435 32.0178C23.5388 32.2127 23.3341 32.4726 23.1294 32.6675C24.6987 33.1223 26.1998 33.772 27.5645 34.6167C29.6797 32.7325 32.2043 31.2381 34.9335 30.3285C30.1573 27.0799 29.0656 20.7776 32.4772 16.2295C35.8888 11.6815 42.5073 10.6419 47.2835 13.8905C52.0598 17.1391 53.1515 23.4414 49.7399 27.9895C49.1258 28.8341 48.3753 29.5488 47.4882 30.1985C48.0341 30.3285 48.5799 30.5234 49.1258 30.7183C51.5822 31.6279 53.8338 32.9923 55.7443 34.8116C59.2241 38.1252 61.0664 42.7382 60.9982 47.936ZM17.3297 32.0178C17.4661 32.0178 17.6026 32.0178 17.6708 32.0178C20.5366 31.8228 22.6518 29.4839 22.4471 26.755C22.2424 24.0262 19.786 22.012 16.9203 22.207C14.0545 22.4019 11.9393 24.7409 12.144 27.4697C12.3487 30.0036 14.6004 32.0178 17.3297 32.0178ZM27.7009 38.7099C26.8139 39.9444 26.1998 41.2438 25.7904 42.6732C25.2446 44.4924 25.1764 46.1817 25.654 47.1563C25.8587 47.6111 26.2681 48.1309 27.4962 48.1309C28.2468 48.1958 28.9291 47.9359 29.475 47.4811C30.2255 46.7015 30.2255 45.3371 30.1573 44.6873C30.1573 44.6224 30.1573 44.6224 30.1573 44.6224C30.0208 42.4133 29.202 40.3342 27.7009 38.7099ZM41.0744 29.3539C45.2366 29.3539 48.6482 26.1053 48.6482 22.142C48.6482 18.1787 45.2366 14.9301 41.0744 14.9301C36.9123 14.9301 33.5007 18.1787 33.5007 22.142C33.5007 26.1053 36.9123 29.3539 41.0744 29.3539Z" fill="currentColor"/>
</svg>
