<svg width="493" height="492" viewBox="0 0 493 492" fill="none" xmlns="http://www.w3.org/2000/svg">
<path d="M92.0178 420.001C92.0178 431.501 81.8178 440.901 69.3178 440.901C56.8178 440.901 46.6178 431.601 46.6178 420.001C46.6178 408.501 56.7178 399.101 69.3178 399.101C81.9178 399.101 92.0178 408.501 92.0178 420.001Z" fill="url(#paint0_linear_216_21)"/>
<path d="M457.018 399.701C457.018 411.201 446.918 420.601 434.318 420.601C421.818 420.601 411.618 411.301 411.618 399.701C411.618 388.101 421.718 378.801 434.318 378.801C446.918 378.801 457.018 388.201 457.018 399.701Z" fill="url(#paint1_linear_216_21)"/>
<path d="M127.318 278.301C130.118 288.301 123.918 297.901 112.518 300.901C103.218 303.301 42.3178 317.701 27.2178 321.201C7.81781 325.601 0.617811 305.301 4.31781 293.401C8.01781 281.501 30.3178 279.001 46.6178 277.101C62.9178 275.201 84.0178 267.701 100.918 264.301C117.818 260.901 125.018 270.201 127.318 278.301Z" fill="url(#paint2_linear_216_21)"/>
<path d="M280.018 347.401C289.318 347.401 297.118 354.101 300.018 364.801C301.018 368.301 303.018 379.501 306.518 391.101C313.818 415.501 324.518 447.401 324.518 453.801C324.518 463.201 317.218 473.901 308.318 473.901C299.418 473.901 288.918 465.501 286.118 454.201C275.218 409.401 271.118 393.601 266.218 375.601C261.318 357.601 270.718 347.401 280.018 347.401Z" fill="url(#paint3_linear_216_21)"/>
<path d="M218.818 366.501C230.618 366.301 235.818 376.401 235.818 386.601C234.018 429.501 234.618 426.201 232.818 469.101C232.818 479.201 226.718 492.001 212.218 492.001C197.718 492.001 191.718 479.101 191.718 468.901C193.518 426.001 198.318 429.501 200.118 386.601C200.218 376.401 207.118 366.601 218.818 366.501Z" fill="url(#paint4_linear_216_21)"/>
<path d="M168.218 363.101C168.818 356.601 168.718 349.301 165.318 346.101C158.918 340.201 146.118 341.701 141.418 341.701C134.318 341.701 114.418 340.501 69.9178 340.501C64.9178 340.501 59.0178 345.301 59.0178 353.501C59.0178 362.801 59.3178 358.501 59.3178 367.801C59.3178 372.801 65.8178 380.101 75.3178 378.801C107.118 377.001 128.918 378.801 128.918 378.801C128.918 378.801 126.618 402.501 123.218 436.001C122.718 441.001 123.418 448.301 129.518 451.101C135.718 453.801 141.418 456.301 147.918 453.801C153.218 451.501 156.918 446.601 157.818 440.801C159.618 423.401 162.418 412.301 164.218 397.601C166.918 375.601 168.018 365.401 168.218 363.101Z" fill="url(#paint5_linear_216_21)"/>
<path d="M360.418 263.101C360.518 249.501 367.418 243.701 382.118 246.401C430.018 255.201 460.718 256.001 471.118 257.901C485.118 260.401 492.018 265.201 492.018 278.501C492.018 288.701 483.518 299.601 470.918 297.701C459.718 296.001 387.518 282.701 378.018 281.001C368.518 279.301 360.318 276.701 360.418 263.101Z" fill="url(#paint6_linear_216_21)"/>
<path d="M437.618 323.601C418.618 321.101 402.218 319.301 389.018 317.901C372.218 316.101 362.418 314.901 357.318 314.201C345.918 312.701 334.218 314.701 329.518 321.201C326.418 325.501 334.418 354.301 339.118 366.501C344.618 380.601 349.318 396.201 358.318 418.201C360.218 422.901 363.918 428.701 370.618 428.701C377.318 428.701 383.718 426.801 388.418 423.101C393.118 419.401 394.918 414.101 391.518 405.701C380.518 379.401 367.418 348.601 367.418 348.601C367.418 348.601 399.918 354.801 433.718 359.701C441.518 360.801 447.518 357.501 449.518 351.601C451.618 345.401 451.618 341.901 451.618 336.601C451.618 331.301 445.918 324.701 437.618 323.601Z" fill="url(#paint7_linear_216_21)"/>
<path d="M82.5178 79.401C84.6178 68.101 76.3178 57.001 64.0178 54.701C51.7178 52.401 40.0178 59.701 37.9178 71.101C35.8178 82.401 44.1178 93.501 56.4178 95.801C68.7178 98.101 80.4178 90.701 82.5178 79.401Z" fill="url(#paint8_linear_216_21)"/>
<path d="M440.918 72.601C440.918 61.101 430.818 51.701 418.218 51.701C405.718 51.701 395.518 61.001 395.518 72.601C395.518 84.201 405.618 93.501 418.218 93.501C430.818 93.501 440.918 84.101 440.918 72.601Z" fill="url(#paint9_linear_216_21)"/>
<path d="M0.717811 201.801C3.21781 192.601 13.2178 187.901 24.2178 190.201C46.3178 192.701 57.2178 194.201 67.6178 195.701C78.9178 197.301 89.6178 199.001 113.718 201.701C124.718 204.301 128.618 213.501 126.118 224.201H126.018C123.518 234.901 112.218 241.101 101.218 238.501C54.1178 231.701 60.7178 232.601 13.6178 226.001C2.61781 223.601 -1.88219 215.601 0.717811 201.801Z" fill="url(#paint10_linear_216_21)"/>
<path d="M271.418 132.201C281.618 132.201 289.018 124.101 289.018 114.001C291.118 80.201 291.318 73.801 293.018 50.501C293.418 45.001 294.818 38.501 295.318 30.501C295.318 20.301 289.618 10.201 277.118 10.201C264.618 10.201 259.918 20.401 259.918 30.601C258.118 60.301 256.618 64.401 255.218 81.901C254.618 89.001 254.418 102.001 253.718 114.101C253.718 124.301 261.318 132.201 271.418 132.201Z" fill="url(#paint11_linear_216_21)"/>
<path d="M207.118 132.401C217.318 132.301 224.318 121.401 224.218 111.301C220.818 64.101 219.018 64.301 215.618 17.101C215.418 7.00104 209.318 -0.0989569 199.218 0.00104308V0.301043C189.018 0.401043 182.918 7.00104 183.018 17.101C186.418 64.301 182.318 64.601 185.818 111.701C185.918 121.901 196.918 132.501 207.118 132.401Z" fill="url(#paint12_linear_216_21)"/>
<path d="M155.618 129.501C152.018 94.801 152.418 94.501 148.818 59.801C147.318 52.201 143.218 44.201 122.918 50.001C115.418 52.101 108.518 59.801 110.018 67.401C115.718 96.101 117.518 103.501 121.218 121.001C98.3178 121.101 75.4178 122.601 63.0178 121.401C50.6178 120.201 47.5178 127.501 45.7178 132.401C43.9178 137.201 41.2178 153.901 50.7178 159.801C60.2178 165.701 100.218 156.101 138.618 155.701C140.018 155.901 141.518 155.901 143.018 155.701H144.918C146.018 155.701 147.118 155.601 148.218 155.401C149.618 155.501 151.118 155.401 152.518 155.101C160.118 153.701 157.118 137.101 155.618 129.501Z" fill="url(#paint13_linear_216_21)"/>
<path d="M352.518 200.901C351.518 207.501 357.018 220.101 367.918 220.101C378.818 220.101 448.418 210.601 457.118 209.601C465.818 208.601 478.818 206.001 478.918 193.501C479.018 181.001 469.618 172.201 460.018 172.201C450.418 172.201 383.818 181.101 370.918 183.601C358.018 186.101 353.418 194.301 352.518 200.901Z" fill="url(#paint14_linear_216_21)"/>
<path d="M436.118 126.201C434.818 121.301 433.618 113.001 418.818 113.401C397.618 113.901 376.518 115.501 355.618 118.201C360.918 104.301 365.418 91.601 375.318 65.401C379.218 55.201 377.818 48.401 364.018 41.501C351.018 35.001 342.218 46.401 340.318 51.101C323.318 92.301 318.818 118.001 315.518 126.201C312.218 134.401 309.618 149.601 313.818 152.701C318.518 157.201 332.918 156.501 337.918 155.901C382.118 150.501 379.018 155.201 423.318 149.701C428.218 149.101 440.918 144.301 436.118 126.201Z" fill="url(#paint15_linear_216_21)"/>
<defs>
<linearGradient id="paint0_linear_216_21" x1="1865.72" y1="-1041.64" x2="-601.701" y2="924.442" gradientUnits="userSpaceOnUse">
<stop stop-color="#03C9BD"/>
<stop offset="1" stop-color="#00A79D"/>
</linearGradient>
<linearGradient id="paint1_linear_216_21" x1="1865.72" y1="-1041.61" x2="-601.701" y2="924.479" gradientUnits="userSpaceOnUse">
<stop stop-color="#03C9BD"/>
<stop offset="1" stop-color="#00A79D"/>
</linearGradient>
<linearGradient id="paint2_linear_216_21" x1="1861.53" y1="-1050.37" x2="-609.589" y2="916.026" gradientUnits="userSpaceOnUse">
<stop stop-color="#03C9BD"/>
<stop offset="1" stop-color="#00A79D"/>
</linearGradient>
<linearGradient id="paint3_linear_216_21" x1="1866.98" y1="-1046.95" x2="-605.662" y2="922.943" gradientUnits="userSpaceOnUse">
<stop stop-color="#03C9BD"/>
<stop offset="1" stop-color="#00A79D"/>
</linearGradient>
<linearGradient id="paint4_linear_216_21" x1="1876.58" y1="-1032.18" x2="-595.609" y2="933.524" gradientUnits="userSpaceOnUse">
<stop stop-color="#03C9BD"/>
<stop offset="1" stop-color="#00A79D"/>
</linearGradient>
<linearGradient id="paint5_linear_216_21" x1="1856.75" y1="-1059.21" x2="-616.224" y2="910.4" gradientUnits="userSpaceOnUse">
<stop stop-color="#03C9BD"/>
<stop offset="1" stop-color="#00A79D"/>
</linearGradient>
<linearGradient id="paint6_linear_216_21" x1="1864.25" y1="-1048.18" x2="-607.628" y2="919.127" gradientUnits="userSpaceOnUse">
<stop stop-color="#03C9BD"/>
<stop offset="1" stop-color="#00A79D"/>
</linearGradient>
<linearGradient id="paint7_linear_216_21" x1="1821.15" y1="-1104.48" x2="-651.864" y2="864.523" gradientUnits="userSpaceOnUse">
<stop stop-color="#03C9BD"/>
<stop offset="1" stop-color="#00A79D"/>
</linearGradient>
<linearGradient id="paint8_linear_216_21" x1="1866.88" y1="-1041.69" x2="-600.94" y2="926.773" gradientUnits="userSpaceOnUse">
<stop stop-color="#03C9BD"/>
<stop offset="1" stop-color="#00A79D"/>
</linearGradient>
<linearGradient id="paint9_linear_216_21" x1="1865.85" y1="-1042.22" x2="-601.559" y2="923.81" gradientUnits="userSpaceOnUse">
<stop stop-color="#03C9BD"/>
<stop offset="1" stop-color="#00A79D"/>
</linearGradient>
<linearGradient id="paint10_linear_216_21" x1="1866.22" y1="-1044.51" x2="-601.974" y2="925.105" gradientUnits="userSpaceOnUse">
<stop stop-color="#03C9BD"/>
<stop offset="1" stop-color="#00A79D"/>
</linearGradient>
<linearGradient id="paint11_linear_216_21" x1="1867.49" y1="-1044.2" x2="-604.938" y2="923.982" gradientUnits="userSpaceOnUse">
<stop stop-color="#03C9BD"/>
<stop offset="1" stop-color="#00A79D"/>
</linearGradient>
<linearGradient id="paint12_linear_216_21" x1="1860.97" y1="-1048.65" x2="-610.563" y2="915.174" gradientUnits="userSpaceOnUse">
<stop stop-color="#03C9BD"/>
<stop offset="1" stop-color="#00A79D"/>
</linearGradient>
<linearGradient id="paint13_linear_216_21" x1="1922.73" y1="-974.06" x2="-549.832" y2="993.019" gradientUnits="userSpaceOnUse">
<stop stop-color="#03C9BD"/>
<stop offset="1" stop-color="#00A79D"/>
</linearGradient>
<linearGradient id="paint14_linear_216_21" x1="1866.98" y1="-1042.13" x2="-604.561" y2="923.278" gradientUnits="userSpaceOnUse">
<stop stop-color="#03C9BD"/>
<stop offset="1" stop-color="#00A79D"/>
</linearGradient>
<linearGradient id="paint15_linear_216_21" x1="792.255" y1="-203.564" x2="197.529" y2="305.961" gradientUnits="userSpaceOnUse">
<stop stop-color="#03C9BD"/>
<stop offset="1" stop-color="#00A79D"/>
</linearGradient>
</defs>
</svg>
