<svg width="207" height="79" viewBox="0 0 207 79" fill="none" xmlns="http://www.w3.org/2000/svg">
<path d="M14.6226 66.6248C14.5226 68.5149 12.9227 70.0072 11.0227 69.9077C9.22265 70.1066 7.52262 68.7139 7.42262 66.9232C7.22262 65.1326 8.62262 63.4414 10.4226 63.3419C10.6226 63.3419 10.8227 63.3419 11.0227 63.3419C12.9227 63.2424 14.6226 64.7346 14.6226 66.6248Z" fill="#F2692A"/>
<path d="M72.8201 63.4414C73.0201 65.431 71.5201 67.1222 69.5201 67.3212C67.5201 67.5201 65.8201 66.0279 65.6201 64.0383C65.4201 62.0487 66.9201 60.3575 68.9201 60.1585C69.0201 60.1585 69.1201 60.1585 69.2201 60.1585C71.1201 60.059 72.7201 61.5513 72.8201 63.4414Z" fill="#FFC900"/>
<path d="M20.323 44.1421C20.723 45.7338 19.723 47.3255 18.223 47.7234C18.123 47.7234 18.123 47.7234 18.023 47.7234C16.523 48.1213 6.82296 50.4094 4.42296 50.9068C1.32296 51.6032 0.222986 48.4198 0.822986 46.5296C1.42299 44.6395 4.923 44.2416 7.523 43.9431C10.123 43.6447 13.523 42.4509 16.223 41.9535C18.823 41.3566 19.923 42.8488 20.323 44.1421Z" fill="#AE0B24"/>
<path d="M44.6211 55.085C46.2211 55.1844 47.5211 56.2787 47.8211 57.8704C48.0211 58.4673 48.3211 60.1585 48.8211 62.0486C50.0211 65.9284 51.7211 71.0019 51.7211 71.9967C51.7211 73.489 50.5211 75.1801 49.1211 75.1801C47.4211 74.9812 46.0211 73.6879 45.6211 72.0962C43.9211 65.033 43.2211 62.4465 42.4211 59.6611C41.6211 56.7761 43.1211 55.085 44.6211 55.085Z" fill="#0D988C"/>
<path d="M34.9216 58.1688C36.8216 58.1688 37.6216 59.7605 37.6216 61.3522C37.3216 68.1169 37.4216 67.6196 37.1216 74.4837C37.2216 76.3739 35.9216 77.9656 34.0216 78.065C33.9216 78.065 33.9216 78.065 33.8216 78.065C31.5216 78.065 30.5216 75.976 30.5216 74.3843C30.8216 67.6195 31.6216 68.1169 31.8216 61.3522C31.8216 59.6611 33.1216 58.2683 34.9216 58.1688C34.8216 58.1688 34.8216 58.1688 34.9216 58.1688Z" fill="#AE0B24"/>
<path d="M26.8227 57.6714C26.9227 56.6766 26.9227 55.4829 26.3227 54.9855C25.3227 54.0901 23.2227 54.2891 22.5227 54.2891C21.4227 54.2891 18.2227 54.0901 11.1227 54.0901C10.0227 54.1896 9.32268 55.0849 9.42268 56.1792C9.42268 57.6714 9.52272 56.9751 9.52272 58.4673C9.72272 59.6611 10.8227 60.4569 12.0227 60.258C14.8227 60.059 17.7227 60.059 20.5227 60.258C20.5227 60.258 20.1227 64.0382 19.6227 69.3107C19.4227 70.2061 19.8227 71.2009 20.6227 71.6983C21.5227 72.2952 22.5227 72.3946 23.5227 72.0962C24.3227 71.6983 24.9227 70.9025 25.1227 70.0071C25.4227 67.2217 25.8227 65.431 26.1227 63.1429C26.6227 59.5616 26.8227 57.9699 26.8227 57.6714Z" fill="#F2692A"/>
<path d="M57.4204 41.7545C57.4204 39.566 58.5204 38.6707 60.9204 39.0686C68.5204 40.4613 73.4204 40.5608 75.1204 40.8592C77.3204 41.2571 78.4204 42.053 78.4204 44.1421C78.4204 45.8333 77.1204 47.1265 75.5204 47.226C75.4204 47.226 75.2204 47.226 75.1204 47.226C73.3204 46.9276 61.8204 44.8385 60.3204 44.54C58.7204 44.3411 57.4204 43.9431 57.4204 41.7545Z" fill="#0D988C"/>
<path d="M69.7206 51.3047C66.7206 50.9067 64.1206 50.6083 62.0206 50.4093C59.3206 50.1109 57.8206 49.9119 57.0206 49.8125C55.2206 49.6135 53.3206 49.9119 52.6206 50.9068C52.1206 51.6031 53.4206 56.1793 54.1206 58.0694C55.0206 60.258 55.7207 62.745 57.2207 66.2268C57.4207 67.1222 58.2207 67.8185 59.2207 67.918C60.2207 67.918 61.2206 67.6196 62.0206 67.0227C62.8206 66.3263 63.1206 65.1325 62.5206 64.2372C60.7206 60.059 58.7207 55.1844 58.7207 55.1844C58.7207 55.1844 63.9206 56.1793 69.3206 56.9751C70.3206 57.2736 71.4206 56.6766 71.8206 55.6818C72.1206 54.886 72.2206 54.0901 72.1206 53.2943C71.8206 52.2995 70.9206 51.4042 69.7206 51.3047Z" fill="#FFC900"/>
<path d="M13.1228 12.6065C13.4228 10.7164 12.1228 8.92573 10.2228 8.72676C8.3228 8.32884 6.52279 9.42314 6.02279 11.3133C5.72279 13.2034 7.02275 14.9941 8.92275 15.193C10.8228 15.591 12.7228 14.4967 13.1228 12.6065Z" fill="#0D988C"/>
<path d="M70.3203 11.5122C70.1203 9.5226 68.4202 8.03039 66.4202 8.22935C64.6202 8.32884 63.2202 9.72156 63.1202 11.5122C63.3202 13.5018 65.0203 14.9941 67.0203 14.7951C68.7203 14.6956 70.1203 13.3029 70.3203 11.5122Z" fill="#AE0B24"/>
<path d="M0.123004 32.0054C0.523004 30.5132 2.12299 29.8168 3.92299 30.1153C7.42299 30.5132 9.22302 30.7121 10.823 31.0106C12.623 31.309 14.323 31.508 18.223 32.0054C20.023 32.4033 20.623 33.8955 20.223 35.5867C19.723 37.2779 18.023 38.2727 16.223 37.8748C8.72304 36.7805 9.82304 36.9794 2.22304 35.8852C0.42304 35.4872 -0.276996 34.194 0.123004 32.0054Z" fill="#FFC900"/>
<path d="M43.2212 20.963C44.7212 20.963 46.0212 19.6697 46.0212 18.1775V18.078C46.3212 12.706 46.4212 11.7112 46.6212 8.03042C46.7212 7.13509 46.9212 6.1403 47.0212 4.84704C47.0212 3.25534 46.1212 1.66364 44.1212 1.66364C42.1212 1.66364 41.4211 3.25532 41.4211 4.9465C41.1211 9.62211 40.9212 10.3185 40.6212 13.104C40.5212 14.1983 40.5211 16.2874 40.4211 18.1775C40.4211 19.7692 41.6212 20.963 43.1212 21.0624C43.2212 20.963 43.2212 20.963 43.2212 20.963Z" fill="#F2692A"/>
<path d="M33.0217 21.0624C34.6217 21.0624 35.7217 19.3713 35.7217 17.6801C35.2217 10.219 34.9217 10.219 34.3217 2.75791C34.4217 1.36518 33.4217 0.171394 32.0217 0.071913C31.9217 0.071913 31.8217 0.071913 31.7217 0.071913C30.4217 -0.0275681 29.2217 0.967261 29.1217 2.36C29.1217 2.45948 29.1217 2.65843 29.1217 2.75791C29.6217 10.219 29.0217 10.3185 29.5217 17.7796C29.8217 19.4707 31.2217 20.8635 33.0217 21.0624Z" fill="#FFC900"/>
<path d="M24.8227 20.565C24.2227 15.0935 24.3227 14.9941 23.7227 9.5226C23.5227 8.32883 22.8226 7.03557 19.6226 7.9309C18.3226 8.22934 17.5227 9.42313 17.5227 10.7164C18.4227 15.2925 18.7227 16.4863 19.3227 19.2718C15.6227 19.2718 12.0227 19.5702 10.0227 19.3712C8.82267 19.0728 7.52268 19.8686 7.22268 21.1619C6.92268 21.9578 6.52267 24.5443 8.02267 25.5391C9.52267 26.4344 15.9227 24.9422 22.0227 24.8427C22.2227 24.8427 22.5227 24.8427 22.7227 24.8427H23.0227C23.2227 24.8427 23.3227 24.8427 23.5227 24.7432C23.7227 24.7432 24.0227 24.7432 24.2227 24.7432C25.5227 24.3453 25.0227 21.7588 24.8227 20.565Z" fill="#0D988C"/>
<path d="M56.2206 31.9058C56.0206 32.9007 56.9206 34.9898 58.6206 34.9898C60.3206 34.9898 71.4206 33.4975 72.8206 33.2986C74.2206 33.0996 76.3206 32.7017 76.3206 30.7121C76.4206 28.9214 75.1206 27.4292 73.3206 27.3297C71.8206 27.3297 61.2206 28.7225 59.1206 29.1204C57.6206 29.3194 56.4206 30.4136 56.2206 31.9058Z" fill="#F2692A"/>
<path d="M69.5208 20.0676C69.3208 19.2718 69.1208 17.9785 66.7208 18.078C63.3208 18.1775 60.0207 18.3764 56.6207 18.8738C57.4207 16.6852 58.2208 14.6956 59.7208 10.5174C60.3208 8.92572 60.1207 7.83144 57.9207 6.73715C56.5207 6.04078 54.9208 6.63766 54.2208 8.03039C54.2208 8.12987 54.1207 8.12989 54.1207 8.22937C52.6207 12.1091 51.2207 16.0884 50.1207 20.1671C49.6207 21.4604 49.2207 23.8479 49.8207 24.3453C50.6207 25.0417 52.8207 24.9422 53.6207 24.8427C60.7207 23.9474 60.2208 24.7432 67.2208 23.8479C68.2208 23.6489 70.3208 22.8531 69.5208 20.0676Z" fill="#AE0B24"/>
<path d="M113.718 12.6066C113.718 13.3029 113.118 13.8998 112.418 13.8998H100.418C99.7185 13.8998 99.1186 14.4967 99.1186 15.1931V21.0625C99.1186 21.7588 99.7185 22.3557 100.418 22.3557H111.418C112.118 22.3557 112.718 22.9526 112.718 23.649V28.424C112.718 29.1204 112.118 29.7173 111.418 29.7173H100.418C99.7185 29.7173 99.1186 30.3142 99.1186 31.0106V43.0478C99.1186 43.7441 98.5186 44.341 97.8186 44.341H91.6189C90.9189 44.341 90.319 43.7441 90.319 43.0478V7.93094C90.319 7.23457 90.9189 6.6377 91.6189 6.6377H112.318C113.018 6.6377 113.618 7.23457 113.618 7.93094V12.6066H113.718Z" fill="#002345"/>
<path d="M123.718 6.53821H127.818C129.118 6.53821 130.118 7.53304 130.118 8.82629V41.854C130.118 43.1472 129.118 44.1421 127.818 44.1421H123.718C122.418 44.1421 121.418 43.1472 121.418 41.854V8.82629C121.418 7.63252 122.518 6.53821 123.718 6.53821Z" fill="#002345"/>
<path d="M162.516 38.2727C162.216 37.5763 161.516 37.0789 160.716 37.0789H149.017C148.217 37.0789 147.617 37.5763 147.217 38.2727L145.317 43.0478C145.017 43.7441 144.317 44.2415 143.517 44.2415H137.017C136.617 44.341 136.217 43.9431 136.117 43.5452C136.117 43.3462 136.117 43.2467 136.217 43.0478L150.516 7.73199C150.816 7.03563 151.516 6.53821 152.316 6.53821H157.716C158.516 6.53821 159.116 7.03563 159.516 7.73199L173.515 43.0478C173.715 43.4457 173.615 43.9431 173.215 44.1421C173.115 44.2416 172.915 44.2415 172.715 44.2415H166.216C165.416 44.2415 164.816 43.7441 164.416 43.0478L162.516 38.2727ZM158.316 30.4137C158.816 30.4137 159.216 30.1152 159.216 29.7173C159.216 29.5184 159.216 29.4189 159.116 29.2199L155.316 18.9733C155.116 18.277 154.716 18.277 154.416 18.9733L150.616 29.2199C150.416 29.6178 150.616 30.1152 151.016 30.3142C151.116 30.4137 151.316 30.4137 151.516 30.4137H158.316Z" fill="#002345"/>
<path d="M191.415 6.53821C192.114 6.53821 193.314 6.53821 194.014 6.6377C194.014 6.6377 199.614 7.03562 202.614 9.62213C205.814 12.4076 206.014 16.6853 206.014 19.2718C206.014 22.4552 204.714 25.4396 202.514 27.6282C200.014 29.9163 196.014 31.0106 192.215 31.0106H189.415C188.715 31.0106 188.115 31.6074 188.115 32.3038V42.9483C188.115 43.6447 187.515 44.2415 186.815 44.2415H180.615C179.915 44.2415 179.315 43.6447 179.315 42.9483V7.83148C179.315 7.13511 179.915 6.53821 180.615 6.53821H191.415ZM188.015 22.6542C188.015 23.3505 188.615 23.9474 189.315 23.9474C191.115 24.1464 192.914 23.9474 194.714 23.45C196.714 22.6541 197.314 20.8635 197.314 18.5754C197.414 16.5858 196.114 14.6957 194.214 14.0988C192.615 13.8003 191.015 13.6014 189.415 13.7009C188.715 13.7009 188.115 14.2977 188.115 14.9941L188.015 22.6542Z" fill="#002345"/>
<path d="M91.519 55.085V57.572H94.619V58.5668H91.519V62.8445H90.4189V54.0901H94.719V55.085H91.519Z" fill="#002345"/>
<path d="M97.8187 54.9855C97.8187 55.3834 97.5187 55.6819 97.1187 55.6819C96.7187 55.6819 96.4187 55.3834 96.4187 54.9855C96.4187 54.5876 96.7187 54.2891 97.1187 54.2891C97.5187 54.2891 97.8187 54.5876 97.8187 54.9855ZM97.6187 62.8445H96.5187V57.373H97.6187V62.8445Z" fill="#002345"/>
<path d="M100.919 58.1689C101.319 57.572 101.919 57.2736 102.619 57.2736C104.119 57.2736 104.519 58.2684 104.519 59.6611V62.944H103.519V59.8601C103.519 58.9647 103.419 58.2684 102.319 58.2684C100.919 58.2684 100.919 59.4622 100.919 60.457V62.944H99.8186V57.4725H100.919V58.1689Z" fill="#002345"/>
<path d="M111.418 62.8444H110.318V61.9491C109.918 62.546 109.218 62.9439 108.418 62.9439C106.818 62.745 105.618 61.3522 105.818 59.7605C105.918 58.3678 107.018 57.373 108.418 57.174C109.218 57.174 109.918 57.5719 110.318 58.2683V57.373H111.418V62.8444ZM110.418 60.1584C110.318 59.1636 109.418 58.4673 108.418 58.6662C107.418 58.7657 106.718 59.661 106.918 60.6558C107.018 61.5512 107.718 62.1481 108.618 62.1481C109.618 62.1481 110.418 61.3522 110.418 60.3574C110.418 60.2579 110.418 60.2579 110.418 60.1584Z" fill="#002345"/>
<path d="M114.318 58.1689C114.718 57.572 115.318 57.2736 116.018 57.2736C117.518 57.2736 117.918 58.2684 117.918 59.6611V62.944H116.818V59.8601C116.818 58.9647 116.718 58.2684 115.618 58.2684C114.218 58.2684 114.218 59.4622 114.218 60.457V62.944H113.118V57.4725H114.218L114.318 58.1689Z" fill="#002345"/>
<path d="M123.718 58.9648C123.318 58.4673 122.718 58.2684 122.118 58.2684C121.118 58.2684 120.318 59.1637 120.318 60.1585C120.218 61.1533 121.018 62.0487 122.118 62.0487H122.218C122.818 62.0487 123.318 61.7502 123.718 61.3523V62.6455C123.218 62.8445 122.718 63.0435 122.218 63.0435C120.618 63.0435 119.318 61.8497 119.318 60.258C119.318 60.258 119.318 60.258 119.318 60.1585C119.318 58.5668 120.618 57.2736 122.218 57.2736H122.318C122.818 57.2736 123.318 57.373 123.718 57.6715V58.9648Z" fill="#002345"/>
<path d="M126.818 54.9855C126.818 55.3835 126.418 55.6819 126.018 55.6819C125.618 55.6819 125.318 55.3835 125.318 54.9855C125.318 54.5876 125.618 54.2891 126.018 54.1897C126.418 54.0902 126.818 54.4881 126.818 54.9855C126.818 54.886 126.818 54.886 126.818 54.9855ZM126.617 62.8445H125.518V57.3731H126.617V62.8445Z" fill="#002345"/>
<path d="M134.017 62.8444H132.917V61.9491C132.517 62.546 131.817 62.9439 131.017 62.9439C129.417 62.745 128.217 61.3522 128.417 59.7605C128.517 58.3678 129.617 57.373 131.017 57.174C131.817 57.174 132.517 57.5719 132.917 58.2683V57.373H134.017V62.8444ZM133.017 60.1584C133.117 59.1636 132.417 58.2683 131.417 58.1688C131.317 58.1688 131.317 58.1688 131.217 58.1688C130.117 58.0693 129.117 58.8652 129.017 59.9595C128.917 61.0538 129.717 62.0486 130.817 62.1481C131.917 62.2475 132.917 61.4517 133.017 60.3574C133.017 60.3574 133.017 60.2579 133.017 60.1584Z" fill="#002345"/>
<path d="M137.017 52.7969H135.917V62.8445H137.017V52.7969Z" fill="#002345"/>
<path d="M144.117 54.0901H143.017V62.8445H144.117V54.0901Z" fill="#002345"/>
<path d="M147.216 58.1689C147.616 57.572 148.216 57.2736 148.916 57.2736C150.416 57.2736 150.816 58.2684 150.816 59.6611V62.944H149.716V59.8601C149.716 58.9647 149.616 58.2684 148.516 58.2684C147.116 58.2684 147.116 59.4622 147.116 60.457V62.944H146.016V57.4725H147.116L147.216 58.1689Z" fill="#002345"/>
<path d="M156.816 58.9648C156.416 58.4673 155.816 58.2684 155.216 58.2684C154.216 58.2684 153.416 59.1637 153.416 60.1585C153.316 61.1533 154.116 62.0487 155.216 62.0487H155.316C155.916 62.0487 156.416 61.7502 156.816 61.3523V62.6455C156.316 62.8445 155.816 63.0435 155.316 63.0435C153.716 63.0435 152.416 61.8497 152.416 60.258C152.416 60.258 152.416 60.258 152.416 60.1585C152.416 58.5668 153.716 57.2736 155.316 57.2736H155.416C155.916 57.2736 156.416 57.373 156.816 57.6715V58.9648Z" fill="#002345"/>
<path d="M159.616 52.7969H158.516V62.8445H159.616V52.7969Z" fill="#002345"/>
<path d="M162.516 57.4725V60.457C162.516 61.3523 162.716 62.0487 163.816 62.0487C164.816 62.0487 165.116 61.2528 165.116 60.457V57.4725H166.216V60.5565C166.216 62.0487 165.516 63.0435 163.916 63.0435C162.316 63.0435 161.616 62.0487 161.616 60.5565V57.4725H162.516Z" fill="#002345"/>
<path d="M170.216 58.6663C170.116 58.3678 169.816 58.1689 169.516 58.1689C169.216 58.1689 168.916 58.3678 168.916 58.6663C168.916 59.1637 169.516 59.3627 170.216 59.6611C170.816 59.9595 171.516 60.3575 171.516 61.2528C171.516 62.2476 170.716 63.0435 169.616 63.0435C168.816 63.0435 168.016 62.5461 167.716 61.8497L168.616 61.4518C168.816 61.8497 169.216 62.1481 169.616 62.1481C170.016 62.1481 170.416 61.8497 170.416 61.4518C170.416 61.1533 170.216 60.9544 170.016 60.8549L169.016 60.3575C168.416 60.059 167.916 59.7606 167.916 58.9648C167.916 58.0694 168.616 57.373 169.516 57.373C170.116 57.373 170.716 57.771 171.016 58.3679L170.216 58.6663Z" fill="#002345"/>
<path d="M174.515 54.9855C174.515 55.3835 174.115 55.6819 173.715 55.6819C173.315 55.6819 173.015 55.3835 173.015 54.9855C173.015 54.5876 173.315 54.2891 173.715 54.1897C174.115 54.0902 174.515 54.4881 174.515 54.9855C174.515 54.886 174.515 54.886 174.515 54.9855ZM174.315 62.8445H173.215V57.3731H174.315V62.8445Z" fill="#002345"/>
<path d="M181.915 60.1585C181.915 61.7502 180.615 63.0435 179.015 63.0435C177.415 63.0435 176.115 61.7502 176.115 60.1585C176.115 58.5668 177.415 57.2736 179.015 57.2736C180.615 57.2736 181.915 58.4673 181.915 60.1585ZM177.115 60.1585C177.115 61.1533 178.015 62.0487 179.015 61.9492C180.015 61.9492 180.915 61.0539 180.815 60.059C180.815 59.0642 179.915 58.2684 178.915 58.2684C177.915 58.2684 177.115 59.1637 177.115 60.1585Z" fill="#002345"/>
<path d="M184.415 58.1689C184.815 57.572 185.415 57.2736 186.115 57.2736C187.615 57.2736 188.015 58.2684 188.015 59.6611V62.944H186.915V59.8601C186.915 58.9647 186.815 58.2684 185.715 58.2684C184.315 58.2684 184.315 59.4622 184.315 60.457V62.944H183.215V57.4725H184.315L184.415 58.1689Z" fill="#002345"/>
<path d="M91.7191 73.7875L90.7191 75.9761H89.519L93.7191 66.8238L97.919 75.9761H96.7191L95.7191 73.7875H91.7191ZM93.7191 69.3108L92.119 72.8921H95.2191L93.7191 69.3108Z" fill="#002345"/>
<path d="M103.019 72.0963C102.619 71.5988 102.019 71.3999 101.419 71.3999C100.419 71.3999 99.6187 72.2952 99.6187 73.29C99.5187 74.2848 100.319 75.1802 101.419 75.1802H101.519C102.119 75.1802 102.619 74.8817 103.019 74.4838V75.7771C102.519 75.976 102.019 76.175 101.519 76.175C99.9187 76.175 98.6187 74.9812 98.6187 73.3895C98.6187 73.3895 98.6187 73.3895 98.6187 73.29C98.6187 71.6983 99.9187 70.4051 101.519 70.4051H101.619C102.119 70.4051 102.619 70.5046 103.019 70.803V72.0963Z" fill="#002345"/>
<path d="M105.918 75.976H104.818V71.4994H104.218V70.5046H104.818V68.4155H105.918V70.5046H106.918V71.4994H105.918V75.976Z" fill="#002345"/>
<path d="M109.518 68.117C109.518 68.5149 109.218 68.8134 108.818 68.8134C108.418 68.8134 108.118 68.5149 108.118 68.117C108.118 67.7191 108.418 67.4207 108.818 67.4207C109.218 67.4207 109.518 67.7191 109.518 68.117ZM109.318 75.976H108.218V70.5046H109.318V75.976Z" fill="#002345"/>
<path d="M116.918 73.29C116.918 74.8817 115.618 76.175 114.018 76.175C112.418 76.175 111.118 74.8817 111.118 73.29C111.118 71.6983 112.418 70.4051 114.018 70.4051C115.518 70.4051 116.818 71.5989 116.918 73.29ZM112.118 73.29C112.118 74.2848 113.018 75.1802 114.018 75.0807C115.018 75.0807 115.918 74.1854 115.818 73.1905C115.818 72.1957 114.918 71.3999 113.918 71.3999C112.918 71.3999 112.118 72.2952 112.118 73.29Z" fill="#002345"/>
<path d="M119.418 71.3004C119.818 70.7035 120.418 70.4051 121.118 70.4051C122.618 70.4051 123.018 71.3999 123.018 72.7926V76.0755H122.018V72.9916C122.018 72.0963 121.918 71.3999 120.818 71.3999C119.418 71.3999 119.418 72.5937 119.418 73.5885V76.0755H118.318V70.604H119.318V71.3004H119.418Z" fill="#002345"/>
<path d="M130.117 75.976H129.017V67.2217H130.317C133.017 67.2217 133.917 68.117 133.917 69.7087C133.917 71.5988 132.517 72.2952 130.817 72.2952H130.217L130.117 75.976ZM130.117 71.3999H130.517C131.617 71.3999 132.817 71.2009 132.817 69.8082C132.817 68.4155 131.517 68.316 130.417 68.316H130.117V71.3999Z" fill="#002345"/>
<path d="M136.317 65.9284H135.217V75.976H136.317V65.9284Z" fill="#002345"/>
<path d="M143.417 75.976H142.317V75.0807C141.917 75.6776 141.217 76.0755 140.417 76.0755C138.817 75.8765 137.617 74.4838 137.817 72.8921C137.917 71.4994 139.017 70.5046 140.417 70.3056C141.217 70.3056 141.917 70.7035 142.317 71.3999V70.5046H143.417V75.976ZM142.517 73.29C142.617 72.2952 141.917 71.3999 140.917 71.3004C140.817 71.3004 140.817 71.3004 140.717 71.3004C139.617 71.2009 138.617 71.9968 138.517 73.0911C138.417 74.1854 139.217 75.1802 140.317 75.2797C141.417 75.3791 142.417 74.5833 142.517 73.489C142.417 73.489 142.517 73.3895 142.517 73.29Z" fill="#002345"/>
<path d="M146.417 71.3004C146.817 70.7035 147.417 70.4051 148.117 70.4051C149.617 70.4051 150.017 71.3999 150.017 72.7926V76.0755H148.917V72.9916C148.917 72.0963 148.817 71.3999 147.717 71.3999C146.317 71.3999 146.317 72.5937 146.317 73.5885V76.0755H145.217V70.604H146.317L146.417 71.3004Z" fill="#002345"/>
</svg>
