<svg width="360" height="72" viewBox="0 0 360 72" fill="none" xmlns="http://www.w3.org/2000/svg">
<path d="M25.3048 10.9519C26.5112 7.75741 28.723 4.86246 31.5379 2.86593C34.6545 0.769574 38.2737 -0.228716 41.9935 -0.0290629C46.0149 0.17059 49.9357 1.56816 53.1528 3.964C56.571 6.55949 58.9838 10.2531 59.788 14.4458C61.4971 22.9311 59.2854 32.5144 53.0523 43.5952C49.9357 48.9858 46.417 54.1768 42.5967 59.1681C40.1839 58.07 37.8716 56.9719 35.5593 55.774C39.5807 50.7827 43.0994 45.4919 46.3165 39.9016C51.6448 30.418 53.5549 22.6316 52.248 15.9432C51.2426 10.6524 46.1154 7.65759 41.6919 7.55776C39.3796 7.45794 33.8502 8.0569 31.9401 15.0448C31.739 15.7435 31.6385 16.5422 31.6385 17.241C30.1304 14.6455 27.9187 12.4493 25.3048 10.9519Z" fill="#B86AAB"/>
<path d="M37.8715 65.3574C36.6651 66.8548 35.3581 68.452 34.0512 69.9494C33.3474 70.8478 32.2415 71.3469 31.1357 71.3469C30.2309 71.3469 29.3261 71.0475 28.7229 70.4485C27.1143 69.1508 26.9132 66.7549 28.2202 65.1577C29.125 64.0596 30.0298 62.9615 30.9346 61.9633C33.0458 63.0613 35.3581 64.1594 37.8715 65.3574Z" fill="#B86AAB"/>
<path d="M233.969 64.0457C233.768 63.6464 233.365 63.2471 232.963 63.0474C232.159 62.5483 231.053 62.5483 230.249 63.0474C229.847 63.2471 229.545 63.6464 229.243 64.0457C228.942 64.5448 228.841 65.0439 228.841 65.6429C228.841 66.2418 228.942 66.741 229.243 67.2401C229.445 67.6394 229.847 68.0387 230.249 68.2384C231.053 68.7375 232.159 68.7375 232.963 68.2384C233.365 68.0387 233.768 67.6394 233.969 67.2401C234.27 66.741 234.371 66.2418 234.371 65.6429C234.371 65.0439 234.17 64.445 233.969 64.0457ZM228.037 63.4467C228.339 62.8477 228.841 62.3486 229.445 62.0491C230.048 61.7497 230.751 61.55 231.355 61.55C231.958 61.55 232.561 61.6498 233.064 61.9493C233.566 62.2488 233.969 62.5483 234.27 63.0474V58.8547H235.577V69.6359H234.27V68.1385C233.969 68.6377 233.566 69.037 233.064 69.3365C232.561 69.6359 231.857 69.8356 231.254 69.8356C230.55 69.8356 229.947 69.6359 229.344 69.3365C228.741 69.037 228.238 68.438 227.937 67.8391C227.635 67.1403 227.434 66.4415 227.434 65.6429C227.534 64.8443 227.635 64.0457 228.037 63.4467ZM225.122 62.3486C225.725 63.0474 226.127 63.9458 226.026 64.8443V69.5361H224.719V65.0439C224.719 64.3451 224.518 63.7462 224.116 63.247C223.211 62.4484 221.703 62.4484 220.799 63.247C220.396 63.7462 220.095 64.445 220.195 65.1437V69.5361H218.888V61.55H220.195V62.6481C220.497 62.2488 220.799 61.9493 221.301 61.7496C222.508 61.2505 224.016 61.4502 225.122 62.3486ZM214.968 64.0457C214.767 63.6464 214.364 63.2471 213.962 63.0474C213.158 62.5483 212.052 62.5483 211.248 63.0474C210.846 63.2471 210.544 63.6464 210.242 64.0457C209.941 64.5448 209.84 65.0439 209.84 65.6429C209.84 66.2418 209.941 66.741 210.242 67.2401C210.444 67.6394 210.846 68.0387 211.248 68.2384C212.052 68.7375 213.158 68.7375 213.962 68.2384C214.364 68.0387 214.767 67.6394 214.968 67.2401C215.269 66.741 215.37 66.2418 215.37 65.6429C215.37 65.0439 215.269 64.445 214.968 64.0457ZM209.036 63.3469C209.338 62.7479 209.84 62.2488 210.444 61.9493C211.047 61.6498 211.751 61.4502 212.354 61.4502C212.957 61.4502 213.661 61.55 214.163 61.8495C214.666 62.149 215.068 62.5483 215.37 62.9476V61.55H216.677V69.5361H215.37V68.0387C215.068 68.5379 214.666 68.9372 214.163 69.2366C213.56 69.5361 212.957 69.7358 212.354 69.7358C210.946 69.7358 209.639 68.9372 209.036 67.7392C208.734 67.0404 208.533 66.3417 208.533 65.5431C208.533 64.8443 208.734 64.0457 209.036 63.3469ZM205.618 58.8547H206.925V69.6359H205.618V58.8547ZM201.798 64.0457C201.597 63.6464 201.194 63.2471 200.792 63.0474C199.988 62.5483 198.882 62.5483 198.078 63.0474C197.676 63.2471 197.374 63.6464 197.073 64.0457C196.771 64.5448 196.67 65.0439 196.67 65.6429C196.67 66.2418 196.771 66.741 197.073 67.2401C197.274 67.6394 197.676 68.0387 198.078 68.2384C198.882 68.7375 199.988 68.7375 200.792 68.2384C201.194 68.0387 201.597 67.6394 201.798 67.2401C202.099 66.741 202.2 66.2418 202.2 65.6429C202.2 65.0439 201.999 64.445 201.798 64.0457ZM195.866 63.3469C196.168 62.7479 196.67 62.2488 197.274 61.9493C197.877 61.6498 198.581 61.4502 199.184 61.4502C199.787 61.4502 200.491 61.55 200.993 61.8495C201.496 62.149 201.898 62.5483 202.2 62.9476V61.55H203.507V69.5361H202.2V68.0387C201.898 68.5379 201.496 68.9372 200.993 69.2366C200.39 69.5361 199.787 69.7358 199.184 69.7358C197.776 69.7358 196.469 68.9372 195.866 67.7392C195.564 67.0404 195.363 66.3417 195.363 65.5431C195.363 64.8443 195.464 64.0457 195.866 63.3469ZM192.548 63.7462C192.347 63.3469 192.046 63.0474 191.644 62.9476C191.242 62.7479 190.839 62.6481 190.337 62.6481C189.734 62.6481 189.13 62.8477 188.628 63.247C188.125 63.7462 187.823 64.3451 187.823 65.0439H192.85C192.85 64.5448 192.75 64.1455 192.548 63.7462ZM194.258 66.0422H187.823C187.823 67.4398 188.929 68.5379 190.337 68.5379H190.437C190.94 68.5379 191.443 68.438 191.845 68.1385C192.247 67.8391 192.548 67.5396 192.649 67.0405H194.056C193.855 67.7393 193.353 68.438 192.75 68.9372C192.046 69.4363 191.242 69.7358 190.337 69.6359C189.633 69.6359 188.929 69.4363 188.326 69.1368C187.723 68.8373 187.22 68.3382 186.919 67.7392C186.516 67.0404 186.416 66.3417 186.416 65.5431C186.416 64.7445 186.617 64.0457 186.919 63.3469C187.22 62.7479 187.723 62.2488 188.326 61.9493C188.929 61.6498 189.633 61.4502 190.437 61.4502C191.141 61.4502 191.845 61.6498 192.448 61.9493C193.051 62.2488 193.453 62.7479 193.755 63.3469C194.056 63.9458 194.258 64.6446 194.258 65.3434C194.258 65.5431 194.258 65.8425 194.258 66.0422ZM180.283 68.438H185.209V69.6359H178.675V68.6377L183.601 60.7514H178.675V59.5535H185.109V60.5517L180.283 68.438ZM173.648 61.6498L171.135 69.6359H169.727L167.817 63.3469L165.907 69.6359H164.499L161.986 61.6498H163.394L165.203 68.3382L167.214 61.6498H168.621L170.531 68.3382L172.341 61.6498H173.648ZM159.674 63.7462C159.473 63.3469 159.171 63.0474 158.769 62.9476C158.367 62.7479 157.965 62.6481 157.462 62.6481C156.859 62.6481 156.256 62.8477 155.753 63.247C155.25 63.7462 154.949 64.3451 154.949 65.0439H159.975C159.975 64.5448 159.875 64.1455 159.674 63.7462ZM161.282 66.0422H154.848C154.848 67.4398 155.954 68.5379 157.361 68.5379H157.462C157.965 68.5379 158.467 68.438 158.869 68.1385C159.272 67.8391 159.573 67.5396 159.674 67.0405H161.081C160.88 67.7393 160.377 68.438 159.774 68.9372C159.071 69.4363 158.266 69.7358 157.361 69.6359C156.658 69.6359 155.954 69.4363 155.351 69.1368C154.748 68.8373 154.245 68.3382 153.943 67.7392C153.541 67.0404 153.441 66.3417 153.441 65.5431C153.441 64.7445 153.642 64.0457 153.943 63.3469C154.245 62.7479 154.748 62.2488 155.351 61.9493C155.954 61.6498 156.658 61.4502 157.462 61.4502C158.166 61.4502 158.869 61.6498 159.473 61.9493C160.076 62.2488 160.478 62.7479 160.78 63.3469C161.081 63.9458 161.282 64.6446 161.282 65.3434C161.383 65.5431 161.282 65.8425 161.282 66.0422ZM151.933 69.5361H150.626L145.297 61.4502V69.5361H143.99V59.3538H145.297L150.626 67.4398V59.3538H151.933V69.5361ZM135.747 64.0457C135.546 63.6464 135.143 63.2471 134.741 63.0474C133.937 62.5483 132.831 62.5483 132.027 63.0474C131.625 63.2471 131.323 63.6464 131.022 64.0457C130.72 64.5448 130.619 65.0439 130.619 65.6429C130.619 66.2418 130.72 66.741 131.022 67.2401C131.223 67.6394 131.625 68.0387 132.027 68.2384C132.831 68.7375 133.937 68.7375 134.741 68.2384C135.143 68.0387 135.546 67.6394 135.747 67.2401C136.048 66.741 136.149 66.2418 136.149 65.6429C136.048 65.0439 135.948 64.445 135.747 64.0457ZM129.815 63.3469C130.117 62.7479 130.619 62.2488 131.223 61.9493C131.826 61.6498 132.53 61.4502 133.133 61.4502C133.736 61.4502 134.44 61.55 134.942 61.8495C135.445 62.149 135.847 62.5483 136.149 62.9476V61.55H137.456V69.5361H136.149V68.0387C135.847 68.5379 135.445 68.9372 134.942 69.2366C134.339 69.5361 133.736 69.7358 133.133 69.7358C132.429 69.7358 131.826 69.5361 131.223 69.2366C130.619 68.9372 130.117 68.3382 129.815 67.7392C129.513 67.0404 129.312 66.3417 129.312 65.5431C129.312 64.8443 129.413 64.0457 129.815 63.3469ZM126.296 61.6498H127.603V69.6359H126.296V61.6498ZM126.397 60.0526C126.196 59.853 126.095 59.6533 126.095 59.4536C126.095 59.254 126.196 58.9545 126.397 58.8547C126.598 58.655 126.799 58.5552 127 58.5552C127.201 58.5552 127.503 58.655 127.603 58.8547C127.804 59.0543 127.905 59.254 127.905 59.4536C127.905 59.6533 127.804 59.9528 127.603 60.0526C127.402 60.2523 127.201 60.3521 127 60.3521C126.799 60.3521 126.497 60.2523 126.397 60.0526ZM122.878 58.8547H124.185V69.6359H122.878V58.8547ZM119.058 64.0457C118.857 63.6464 118.455 63.2471 118.053 63.0474C117.248 62.5483 116.142 62.5483 115.338 63.0474C114.936 63.2471 114.634 63.6464 114.333 64.0457C114.031 64.5448 113.931 65.0439 113.931 65.6429C113.931 66.2418 114.031 66.741 114.333 67.2401C114.534 67.6394 114.936 68.0387 115.338 68.2384C116.142 68.7375 117.248 68.7375 118.053 68.2384C118.455 68.0387 118.857 67.6394 119.058 67.2401C119.36 66.741 119.46 66.2418 119.46 65.6429C119.46 65.0439 119.259 64.445 119.058 64.0457ZM113.126 63.3469C113.428 62.7479 113.931 62.2488 114.534 61.9493C115.137 61.6498 115.841 61.4502 116.444 61.4502C117.047 61.4502 117.751 61.55 118.254 61.8495C118.756 62.149 119.158 62.5483 119.46 62.9476V61.55H120.868V69.5361H119.561V68.0387C119.259 68.5379 118.857 68.9372 118.354 69.2366C117.751 69.5361 117.148 69.7358 116.545 69.7358C115.137 69.7358 113.83 68.9372 113.227 67.7392C112.925 67.0404 112.724 66.3417 112.724 65.5431C112.624 64.8443 112.825 64.0457 113.126 63.3469ZM110.11 61.8495C110.613 61.55 111.116 61.4502 111.719 61.4502V62.8477H111.317C109.809 62.8477 109.105 63.6463 109.105 65.2436V69.5361H107.798V61.55H109.105V62.8477C109.407 62.4484 109.708 62.149 110.11 61.8495ZM106.089 62.7479H103.978V67.4398C103.978 67.7392 104.078 68.0387 104.179 68.2384C104.38 68.438 104.782 68.5379 105.084 68.438H106.089V69.5361H104.883C104.279 69.5361 103.676 69.4363 103.174 69.037C102.771 68.5379 102.57 67.9389 102.57 67.3399V62.6481H101.565V61.55H102.57V59.5535H103.877V61.55H105.988V62.7479H106.089ZM96.0356 69.4363C95.5329 69.2366 95.1308 68.9372 94.8292 68.5379C94.5276 68.1386 94.427 67.7392 94.3265 67.2401H95.734C95.734 67.6394 95.935 68.0387 96.3372 68.2384C96.7393 68.5378 97.1414 68.6377 97.6441 68.6377C98.0463 68.6377 98.4484 68.5379 98.8505 68.3382C99.1521 68.1385 99.2527 67.8391 99.2527 67.5396C99.2527 67.2401 99.0516 66.9406 98.75 66.741C98.2473 66.5413 97.8452 66.3417 97.3425 66.2418C96.8399 66.142 96.3372 65.9424 95.9351 65.7427C95.5329 65.543 95.2313 65.3434 94.9297 65.0439C94.6281 64.6446 94.5275 64.2453 94.5275 63.846C94.5275 63.4467 94.6281 63.0474 94.9297 62.7479C95.2313 62.3486 95.5329 62.149 95.9351 61.9493C96.4377 61.7497 96.9404 61.6498 97.4431 61.6498C98.2473 61.6498 98.9511 61.8495 99.5543 62.3486C100.157 62.8477 100.459 63.4467 100.459 64.1455H99.1521C99.1521 63.7462 98.9511 63.3469 98.6495 63.1472C98.2473 62.8477 97.8452 62.7479 97.4431 62.7479C97.0409 62.7479 96.6388 62.8477 96.3372 63.0474C96.0356 63.2471 95.9351 63.5465 95.9351 63.846C95.9351 64.0457 96.0356 64.3451 96.2366 64.445C96.4377 64.6446 96.6388 64.7444 96.8399 64.8443C97.0409 64.9441 97.4431 65.0439 97.9457 65.1437C98.4484 65.2436 98.8505 65.4432 99.3532 65.6429C99.7553 65.8425 100.057 66.0422 100.258 66.3417C100.56 66.6411 100.66 67.0405 100.66 67.5396C100.66 67.9389 100.56 68.3382 100.258 68.7375C99.9564 69.1368 99.6548 69.3365 99.2527 69.5361C98.75 69.7358 98.2473 69.8356 97.7447 69.8356C97.1415 69.7358 96.6388 69.636 96.0356 69.4363ZM91.411 61.6498H92.7179V69.6359H91.411V68.438C91.1094 68.8373 90.8078 69.1368 90.3051 69.4363C89.8025 69.636 89.2998 69.7358 88.7971 69.7358C88.1939 69.7358 87.5907 69.6359 87.088 69.3365C86.5853 69.037 86.1832 68.6377 85.8816 68.1385C85.58 67.5396 85.3789 66.9406 85.4795 66.2418V61.55H86.7864V66.0422C86.7864 66.741 86.9875 67.3399 87.3896 67.8391C87.7918 68.2384 88.395 68.5379 88.9982 68.438C89.6014 68.438 90.2046 68.2384 90.7073 67.7392C91.1094 67.2401 91.411 66.5413 91.3105 65.8425L91.411 61.6498ZM82.1618 66.2418L80.3522 61.1507L78.5426 66.2418H82.1618ZM82.564 67.3399H78.1405L77.3362 69.5361H75.9287L79.6485 59.4536H81.1565L84.8763 69.5361H83.4688L82.564 67.3399Z" fill="black"/>
<path d="M360.139 16.4284V43.4814H353.806V40.5864C353.202 41.5847 352.298 42.3833 351.292 42.8824C350.086 43.4814 348.779 43.7808 347.472 43.7808C345.863 43.7808 344.255 43.3815 342.847 42.4831C341.44 41.5847 340.334 40.2869 339.53 38.7895C338.725 37.0925 338.323 35.1957 338.323 33.1992C338.323 31.3025 338.725 29.4058 339.53 27.7087C340.233 26.2113 341.339 24.9136 342.847 24.0152C344.255 23.1167 345.863 22.7174 347.472 22.7174C348.779 22.7174 349.985 23.0169 351.192 23.516C352.297 24.0152 353.202 24.8138 353.806 25.812V16.3285H360.139V16.4284ZM353.806 33.299C353.906 31.9015 353.403 30.6037 352.499 29.6055C351.694 28.707 350.488 28.2079 349.281 28.2079C348.075 28.2079 346.869 28.707 346.064 29.5056C345.16 30.5039 344.657 31.8016 344.757 33.1992C344.657 34.5968 345.16 35.8945 346.064 36.8928C346.869 37.7912 348.075 38.2904 349.281 38.2904C350.488 38.2904 351.694 37.7912 352.499 36.8928C353.403 35.9944 353.906 34.5968 353.806 33.299Z" fill="black"/>
<path d="M333.498 23.8155C334.603 23.1167 335.91 22.8173 337.217 22.8173V29.4058H335.508C334.201 29.306 332.995 29.7053 331.99 30.4041C331.085 31.4024 330.683 32.6003 330.783 33.898V43.3815H324.449V22.9171H330.783V26.3112C331.487 25.4128 332.392 24.5143 333.498 23.8155Z" fill="black"/>
<path d="M321.635 34.7964H307.359C307.359 35.8945 307.861 36.8928 308.565 37.6914C309.269 38.3902 310.274 38.6897 311.28 38.6897C312.687 38.7895 313.994 37.9909 314.597 36.6931H321.333C321.031 37.9909 320.328 39.2886 319.523 40.2869C318.619 41.385 317.412 42.1836 316.105 42.7826C314.698 43.3815 313.089 43.681 311.581 43.681C309.671 43.681 307.861 43.2817 306.152 42.3833C304.544 41.5847 303.337 40.2869 302.433 38.6897C301.528 36.9926 301.025 35.0959 301.126 33.0994C301.126 31.2027 301.528 29.2062 302.433 27.5091C303.237 25.9119 304.544 24.714 306.152 23.8155C307.861 22.9171 309.671 22.5178 311.581 22.5178C313.391 22.5178 315.301 22.9171 316.909 23.7157C318.417 24.5143 319.724 25.7122 320.529 27.3095C321.434 29.0065 321.936 30.8034 321.836 32.7001C321.735 33.5985 321.735 34.1975 321.635 34.7964ZM315.301 31.3025C315.301 30.3043 314.899 29.4058 314.195 28.707C313.391 28.1081 312.385 27.7088 311.38 27.7088C310.375 27.7088 309.47 28.0083 308.666 28.6072C307.861 29.306 307.459 30.2044 307.359 31.2027H315.301V31.3025Z" fill="black"/>
<path d="M296.501 25.2131C298.009 27.01 298.813 29.306 298.612 31.602V43.5812H292.379V32.4006C292.48 31.2027 292.077 30.1046 291.273 29.2062C290.569 28.4076 289.464 28.0083 288.358 28.1081C287.252 28.1081 286.246 28.5074 285.442 29.2062C284.638 30.1046 284.336 31.2027 284.336 32.4006V43.4814H278.003V16.4284H284.336V25.8121C285.04 24.9136 285.945 24.115 286.95 23.6159C288.157 23.1168 289.363 22.8173 290.67 22.8173C292.882 22.7174 294.993 23.6159 296.501 25.2131Z" fill="black"/>
<path d="M276.093 33.2991C276.093 35.1958 275.69 37.0925 274.886 38.8893C274.182 40.3867 273.077 41.6845 271.569 42.5829C270.161 43.4814 268.552 43.8807 266.944 43.8807C265.637 43.8807 264.33 43.5812 263.124 42.9822C262.118 42.4831 261.213 41.6845 260.61 40.6862V53.2644H254.277V23.1168H260.61V26.0117C261.213 25.0135 262.118 24.2148 263.124 23.7157C264.33 23.1167 265.637 22.8173 266.944 22.8173C268.552 22.8173 270.161 23.2166 271.569 24.115C272.976 25.0135 274.082 26.3112 274.886 27.8086C275.69 29.4058 276.093 31.3025 276.093 33.2991ZM269.658 33.2991C269.759 31.9015 269.256 30.6038 268.351 29.6055C267.547 28.707 266.341 28.2079 265.134 28.3077C263.928 28.3077 262.721 28.8068 261.917 29.7053C261.012 30.7036 260.51 32.0013 260.61 33.3989C260.51 34.7965 261.012 36.0942 261.917 37.0925C262.721 37.9909 263.928 38.49 265.134 38.49C266.341 38.49 267.547 37.9909 268.351 37.0925C269.256 35.9944 269.759 34.5968 269.658 33.2991Z" fill="black"/>
<path d="M251.462 34.7964H237.186C237.186 35.8945 237.688 36.8928 238.392 37.6914C239.096 38.3902 240.101 38.6897 241.107 38.6897C242.514 38.7895 243.821 37.9909 244.424 36.6931H251.16C250.858 37.9909 250.155 39.2886 249.35 40.2869C248.446 41.385 247.239 42.1836 245.932 42.7826C244.525 43.3815 242.916 43.681 241.408 43.681C239.498 43.681 237.688 43.2817 235.979 42.3833C234.371 41.5847 233.164 40.2869 232.26 38.6897C231.355 36.9926 230.852 35.0959 230.953 33.0994C230.953 31.2027 231.355 29.2062 232.26 27.5091C233.064 25.9119 234.371 24.714 235.979 23.8155C237.688 22.9171 239.498 22.5178 241.408 22.5178C243.218 22.5178 245.128 22.9171 246.737 23.7157C248.245 24.5143 249.551 25.7122 250.356 27.3095C251.261 29.0065 251.763 30.8034 251.663 32.7001C251.663 33.5985 251.562 34.1975 251.462 34.7964ZM245.128 31.3025C245.128 30.3043 244.726 29.4058 244.022 28.707C243.218 28.1081 242.212 27.7088 241.207 27.7088C240.202 27.7088 239.297 28.0083 238.493 28.6072C237.688 29.306 237.286 30.2044 237.186 31.2027L245.128 31.3025Z" fill="black"/>
<path d="M226.328 25.2131C227.836 27.01 228.64 29.306 228.439 31.602V43.5812H222.206V32.4006C222.307 31.2027 221.905 30.1046 221.1 29.2062C220.397 28.4076 219.291 28.0083 218.185 28.1081C217.079 28.1081 216.074 28.5074 215.269 29.2062C214.465 30.1046 214.163 31.2027 214.163 32.4006V43.4814H207.83V16.4284H214.163V25.8121C214.867 24.9136 215.772 24.115 216.777 23.6159C217.984 23.1168 219.19 22.8173 220.497 22.8173C222.809 22.8173 224.82 23.6159 226.328 25.2131Z" fill="black"/>
<path d="M190.839 42.8824C189.432 42.2834 188.125 41.385 187.22 40.1871C186.315 38.8893 185.813 37.3919 185.813 35.8945H192.549C192.549 36.6932 192.951 37.4918 193.554 38.0907C194.157 38.5899 194.961 38.8893 195.766 38.8893C196.57 38.8893 197.374 38.6897 197.977 38.2904C198.48 37.8911 198.782 37.1923 198.782 36.4935C198.782 35.8945 198.581 35.2956 198.178 34.8963C197.676 34.497 197.173 34.0977 196.57 33.898C195.665 33.4987 194.76 33.1992 193.855 32.9996C192.448 32.6003 191.041 32.1011 189.734 31.5022C188.628 31.003 187.723 30.2044 187.019 29.2061C186.215 28.1081 185.813 26.7105 185.913 25.3129C185.813 23.1167 186.818 21.0204 188.527 19.7226C190.538 18.325 192.951 17.6263 195.363 17.7261C197.877 17.6263 200.29 18.325 202.3 19.7226C204.009 21.1202 205.115 23.2166 205.115 25.4127H198.279C198.279 24.6141 197.877 23.9153 197.374 23.4162C196.771 22.9171 195.967 22.7174 195.162 22.7174C194.459 22.7174 193.855 22.9171 193.353 23.3164C192.85 23.7157 192.649 24.4145 192.649 25.0134C192.649 25.8121 193.051 26.6107 193.855 26.9101C195.062 27.5091 196.268 28.0082 197.575 28.4075C198.983 28.9067 200.29 29.4058 201.697 30.0048C202.803 30.5039 203.708 31.3025 204.412 32.2009C205.216 33.299 205.618 34.5968 205.517 35.9944C205.517 37.3919 205.115 38.7895 204.412 39.9874C203.607 41.1854 202.501 42.1836 201.094 42.8824C199.485 43.5812 197.776 43.9805 196.067 43.9805C194.157 43.7808 192.448 43.4814 190.839 42.8824Z" fill="black"/>
<path d="M174.352 14.7313V43.4814H167.616V40.3867C167.013 41.4848 166.008 42.2835 164.902 42.8824C163.695 43.4814 162.288 43.8807 160.88 43.7808C159.171 43.7808 157.462 43.2817 155.954 42.3833C154.446 41.385 153.24 40.0873 152.536 38.49C151.631 36.6932 151.229 34.5968 151.229 32.6003C151.229 30.6038 151.631 28.6072 152.536 26.7105C153.34 25.1133 154.446 23.8155 155.954 22.8173C157.462 21.9188 159.171 21.4197 160.88 21.4197C162.288 21.4197 163.595 21.7192 164.801 22.3181C165.907 22.9171 166.912 23.7157 167.616 24.714V14.6315H174.352V14.7313ZM167.616 32.7001C167.717 31.3025 167.214 29.8051 166.209 28.8069C165.304 27.9084 164.097 27.3095 162.79 27.4093C161.483 27.4093 160.277 27.9084 159.372 28.8069C158.367 29.9049 157.864 31.3025 157.965 32.7001C157.864 34.0977 158.367 35.5951 159.372 36.5933C160.277 37.4918 161.483 38.0907 162.79 38.0907C164.097 38.0907 165.304 37.5916 166.209 36.6932C167.214 35.4952 167.717 34.0977 167.616 32.7001Z" fill="black"/>
<path d="M149.419 32.7001C149.419 34.7964 148.917 36.793 147.911 38.5899C146.906 40.2869 145.499 41.5847 143.789 42.4831C141.98 43.3816 139.969 43.8807 137.958 43.8807C135.948 43.8807 133.937 43.4814 132.228 42.4831C130.519 41.5847 129.111 40.2869 128.207 38.5899C127.201 36.793 126.699 34.7964 126.699 32.7001C126.699 30.6037 127.201 28.6072 128.207 26.8103C129.111 25.1133 130.619 23.8155 132.329 22.9171C134.138 22.0187 136.149 21.5195 138.16 21.5195C140.17 21.5195 142.181 21.9188 143.991 22.9171C145.7 23.8155 147.107 25.2131 148.112 26.8103C149.017 28.6072 149.52 30.6037 149.419 32.7001ZM142.684 32.7001C142.784 31.2027 142.281 29.8051 141.377 28.707C140.572 27.8086 139.366 27.3095 138.16 27.3095C136.953 27.3095 135.747 27.8086 134.942 28.707C134.038 29.8051 133.535 31.3025 133.635 32.7001C133.535 34.0977 134.038 35.5951 134.942 36.6932C135.747 37.5916 136.953 38.0908 138.16 38.0908C139.366 38.0908 140.572 37.5916 141.477 36.6932C142.281 35.5951 142.784 34.0977 142.684 32.7001Z" fill="black"/>
<path d="M124.889 32.7001C124.889 34.7964 124.386 36.793 123.381 38.5899C122.376 40.2869 120.968 41.5847 119.259 42.4831C117.449 43.3816 115.439 43.8807 113.428 43.8807C111.417 43.8807 109.407 43.4814 107.698 42.4831C105.989 41.5847 104.581 40.2869 103.676 38.5899C102.671 36.793 102.168 34.7964 102.168 32.7001C102.168 30.6037 102.671 28.6072 103.676 26.8103C104.581 25.1133 106.089 23.8155 107.798 22.9171C109.608 22.0187 111.618 21.5195 113.629 21.5195C115.64 21.5195 117.651 21.9188 119.46 22.9171C121.169 23.8155 122.577 25.2131 123.582 26.8103C124.487 28.6072 124.989 30.6037 124.889 32.7001ZM118.153 32.7001C118.254 31.2027 117.751 29.8051 116.846 28.707C116.042 27.8086 114.836 27.3095 113.629 27.3095C112.423 27.3095 111.216 27.8086 110.412 28.707C109.507 29.8051 109.005 31.3025 109.105 32.7001C109.005 34.0977 109.507 35.5951 110.412 36.6932C111.216 37.5916 112.423 38.0908 113.629 38.0908C114.836 38.0908 116.042 37.5916 116.947 36.6932C117.751 35.5951 118.254 34.0977 118.153 32.7001Z" fill="black"/>
<path d="M99.3532 24.8138H92.0142C91.5116 23.9153 90.8078 23.2166 89.903 22.7174C88.8977 22.2183 87.7918 22.0187 86.5854 22.0187C84.5747 21.9188 82.7651 22.7174 81.3576 24.115C79.9501 25.7122 79.3469 27.7088 79.4474 29.8051C79.3469 32.0013 80.0507 34.0977 81.4581 35.6949C82.9661 37.1923 84.9768 37.8911 87.0881 37.7912C88.5961 37.7912 90.0036 37.3919 91.21 36.4935C92.4164 35.5951 93.2207 34.2973 93.7233 32.8997H85.2785V28.0082H99.8559V34.1975C98.75 37.7912 96.2367 40.6862 92.8185 42.2834C90.9084 43.1819 88.7971 43.681 86.6859 43.5812C84.1726 43.5812 81.6592 42.9822 79.4474 41.7843C77.3362 40.6862 75.6272 38.9892 74.5213 36.8928C73.3149 34.6966 72.7117 32.2009 72.7117 29.7053C72.7117 27.2096 73.3149 24.714 74.5213 22.5178C75.6272 20.4214 77.3362 18.7244 79.4474 17.6263C81.6592 16.4284 84.1726 15.8294 86.6859 15.8294C89.6014 15.7296 92.5169 16.5282 95.0303 18.2252C97.1415 19.9223 98.75 22.2183 99.3532 24.8138Z" fill="black"/>
<path d="M55.0921 71.9459C54.6899 71.9459 54.2878 71.8461 53.8857 71.7463C39.0066 66.5553 26.7414 60.366 17.4923 53.3782C9.65059 47.3886 4.12121 40.8 1.50732 34.4111C-0.000693382 30.6177 -0.302308 26.5248 0.803568 22.6316C1.80891 18.938 3.81961 15.6437 6.63457 13.1481C8.94686 11.0517 11.8623 9.5543 14.9789 9.05517C18.3971 8.55603 21.9158 9.15501 24.9318 10.7522C26.9425 11.8503 31.6676 14.8451 33.1756 20.6351C33.6783 22.6316 32.4719 24.728 30.3607 25.2271C28.35 25.7262 26.2388 24.5283 25.7361 22.4319C25.0323 19.6368 22.2174 17.9397 21.3126 17.4406C18.196 15.7435 14.2752 16.3425 11.6613 18.8382C9.9522 20.4354 8.74579 22.4319 8.14259 24.6281C7.53938 26.9241 7.63991 29.4198 8.54472 31.616C10.0527 35.2097 13.5714 40.8998 22.1168 47.3886C30.7628 53.9771 42.2237 59.7671 56.399 64.6586C58.4097 65.3574 59.415 67.5535 58.7113 69.4502C58.1081 70.9476 56.7006 71.9459 55.0921 71.9459Z" fill="#D72C32"/>
</svg>
