<svg width="64" height="64" viewBox="0 0 64 64" fill="none" xmlns="http://www.w3.org/2000/svg">
<path d="M12.5017 56C12.1138 56 11.6482 56 11.2603 55.92C10.4844 55.84 9.86365 55.12 9.94124 54.2401C9.94124 53.8401 10.174 53.5201 10.4844 53.2001C12.4241 51.4402 13.8984 49.0403 14.5967 46.4804C12.4241 44.6405 10.6396 42.4006 9.24292 39.7607C6.37207 34.1609 6.21688 27.3612 9.01015 21.6014C10.3292 18.8815 12.1914 16.4816 14.4415 14.4817C19.3297 10.2419 25.537 7.92201 31.977 8.002C38.417 7.92201 44.6243 10.2419 49.5901 14.4817C51.8402 16.4816 53.7024 18.8815 55.0214 21.6014C57.6595 27.1212 57.6595 33.6809 55.0214 39.2007C53.7024 41.9206 51.8402 44.3205 49.5901 46.3204C44.7019 50.5602 38.417 52.8801 31.977 52.8001C30.7355 52.8001 29.4941 52.6401 28.2526 52.4002C27.4767 52.2402 26.9336 51.5202 27.0112 50.6402C27.1664 49.8403 27.8647 49.2803 28.7182 49.3603C28.7958 49.3603 28.8734 49.3603 28.951 49.4403C29.9596 49.6803 30.9683 49.7603 31.977 49.7603C44.1587 49.7603 54.0128 41.0406 54.0128 30.4011C54.0128 19.7615 44.1587 11.0419 31.977 11.0419C19.7953 11.0419 9.94124 19.7615 9.94124 30.4011C9.94124 33.201 10.6396 35.9208 11.881 38.3207C13.2 40.8006 14.9846 43.0405 17.1572 44.7205C17.6227 45.1205 17.8555 45.6804 17.7003 46.2404C17.1572 48.5603 16.2261 50.7202 14.907 52.6401C15.5278 52.4801 16.1485 52.3202 16.6916 52.1602C18.8642 51.3602 20.9591 50.2402 22.6661 48.7203C23.2868 48.1603 24.2179 48.2403 24.7611 48.8803C25.3042 49.5203 25.2266 50.4802 24.6059 51.0402C24.6059 51.0402 24.6059 51.0402 24.5283 51.0402C22.4333 52.8001 20.1056 54.1601 17.5451 55.04C15.9933 55.68 14.2087 56 12.5017 56Z" fill="currentColor"/>
</svg>
