<svg width="64" height="64" viewBox="0 0 64 64" fill="none" xmlns="http://www.w3.org/2000/svg">
<path d="M55.3495 59.1057L47.9173 51.2006C49.2011 49.1061 49.9443 46.6738 49.9443 44.2415C49.8767 37.2147 44.0661 31.5393 37.0394 31.6744C29.9451 31.8096 24.2697 37.6201 24.4048 44.6469C24.4723 51.606 30.2154 57.2139 37.1745 57.2139C39.8096 57.2139 42.4446 56.4031 44.5391 54.8491L51.8361 62.5515C52.7144 63.4974 54.2684 63.565 55.2143 62.6867C55.2143 62.6867 55.2143 62.6867 55.2819 62.6191C56.2278 61.6732 56.2278 60.1192 55.3495 59.1057ZM28.3235 44.309C28.3911 39.4444 32.3774 35.5256 37.3097 35.5932C42.2419 35.6607 46.0931 39.6471 46.0255 44.5793C45.958 49.444 42.0392 53.2952 37.1745 53.2952C32.2423 53.2276 28.256 49.2413 28.3235 44.309Z" fill="currentColor"/>
<path d="M37.3097 20.4587H17.378C16.77 20.4587 16.297 19.9181 16.297 19.3101C16.297 18.702 16.77 18.229 17.378 18.229H37.2421C37.8502 18.229 38.3231 18.7695 38.3231 19.3776C38.3231 19.9857 37.8502 20.4587 37.3097 20.4587Z" fill="currentColor"/>
<path d="M37.3097 15.8643H17.378C16.77 15.8643 16.297 15.3237 16.297 14.7157C16.297 14.1076 16.77 13.6346 17.378 13.6346H37.2421C37.8502 13.6346 38.3231 14.1751 38.3231 14.7832C38.3231 15.3913 37.8502 15.8643 37.3097 15.8643Z" fill="currentColor"/>
<path d="M37.3097 25.1206H17.378C16.77 25.1206 16.297 24.6477 16.297 24.0396C16.297 23.4315 16.77 22.9586 17.378 22.9586H37.2421C37.8502 22.9586 38.3231 23.4315 38.3231 24.0396C38.3907 24.5801 37.9178 25.1206 37.3097 25.1206Z" fill="currentColor"/>
<path d="M37.3097 29.107H17.378C16.77 29.107 16.297 28.5664 16.297 27.9584C16.297 27.3503 16.77 26.8773 17.378 26.8773H37.2421C37.8502 26.8773 38.3231 27.4178 38.3231 28.0259C38.3231 28.634 37.8502 29.107 37.3097 29.107Z" fill="currentColor"/>
<path d="M29.1343 33.0933H17.378C16.77 33.0933 16.297 32.5528 16.297 31.9447C16.297 31.3366 16.77 30.8636 17.378 30.8636H29.0668C29.6748 30.8636 30.1478 31.4042 30.1478 32.0122C30.1478 32.6203 29.6748 33.0933 29.1343 33.0933Z" fill="currentColor"/>
<path d="M24.2697 37.0796H17.378C16.77 37.0796 16.297 36.5391 16.297 35.931C16.297 35.3229 16.77 34.85 17.378 34.85H24.2697C24.8777 34.85 25.3507 35.3905 25.3507 35.9986C25.3507 36.6066 24.8777 37.0796 24.2697 37.0796Z" fill="currentColor"/>
<path d="M23.9318 51.1331H15.0133C12.9863 51.1331 11.4323 49.5115 11.4323 47.4846V12.6211C11.4323 10.5942 13.0539 8.97265 15.0133 8.97265H39.742C41.7689 8.97265 43.3229 10.5942 43.3229 12.6211V30.6609C44.1337 31.0663 44.9445 31.5393 45.6877 32.0798V12.6211C45.6877 9.31047 43.0527 6.54031 39.6744 6.54031H15.0133C11.7026 6.54031 9 9.31047 9 12.6211V47.4846C9 50.7953 11.635 53.5654 15.0133 53.5654H25.4858C24.8777 52.8222 24.4048 51.9439 23.9318 51.1331Z" fill="currentColor"/>
<path d="M42.6473 3.43233C42.6473 3.43233 42.6473 3.43233 42.7148 3.43233C43.8634 3.43233 45.012 3.77016 46.0255 4.31068C47.3092 5.12145 48.5254 6.47275 48.593 9.78342V34.7824C49.6065 36.0661 50.4172 37.485 50.9577 39.039V9.78342C51.0253 5.7971 49.2011 3.36477 47.2417 2.21617C45.8904 1.40539 44.3364 1 42.7148 1C42.6473 1 42.5121 1 42.5121 1H16.8375V3.43233H42.6473Z" fill="currentColor"/>
</svg>
