<svg width="64" height="64" viewBox="0 0 64 64" fill="none" xmlns="http://www.w3.org/2000/svg">
<path d="M53.6755 33.0625L53.488 43C53.3942 50.2188 48.8942 56.6875 42.1442 59.3125L39.8942 60.1563C39.7067 60.25 39.5192 60.25 39.3317 60.25C39.1442 60.25 38.9567 60.25 38.7692 60.1563L36.5192 59.3125C29.7692 56.6875 25.2692 50.2188 25.1755 43L24.988 33.0625C24.988 32.2188 25.6442 31.5625 26.488 31.5625H26.5817L27.7067 31.6563C30.0505 31.9375 32.3005 31.375 34.2692 30.1563C35.488 29.4063 36.613 28.4688 37.6442 27.3438C36.4255 25.9375 34.9255 24.7188 33.238 23.9688C31.2692 23.0313 29.0192 22.5625 26.863 22.5625C23.113 22.5625 19.4567 23.9688 16.738 26.5938C14.2067 29.2188 12.8942 32.7813 12.988 36.4375C12.988 37.2813 12.3317 37.9375 11.488 37.9375C10.6442 37.9375 9.988 37.1875 9.988 36.3438C9.8005 31.9375 11.488 27.625 14.5817 24.4375C16.1755 22.8438 18.1442 21.5313 20.3005 20.7813C20.6755 20.6875 20.9567 20.5 21.3317 20.4063C17.3942 17.125 16.738 11.3125 20.0192 7.37501C23.3005 3.43751 29.0192 2.87501 32.9567 6.06251C36.8942 9.25001 37.4567 15.0625 34.2692 19C33.8005 19.5625 33.3317 20.0313 32.7692 20.5C33.3317 20.6875 33.8942 20.9688 34.4567 21.1563C36.3317 22 38.0192 23.3125 39.4255 24.8125C39.5192 24.625 39.7067 24.4375 39.8005 24.1563C40.1755 23.4063 41.113 23.125 41.7692 23.5C42.5192 23.875 42.8005 24.8125 42.4255 25.4688C42.1442 26.0313 41.7692 26.6875 41.3942 27.1563C43.738 30.0625 47.3005 31.6563 51.0505 31.375L52.1755 31.2813C53.0192 31.1875 53.6755 31.8438 53.7692 32.6875C53.6755 32.9688 53.6755 32.9688 53.6755 33.0625ZM20.863 13.1875C20.863 16.6563 23.6755 19.4688 27.1442 19.4688C30.613 19.4688 33.4255 16.6563 33.4255 13.1875C33.4255 9.71876 30.613 6.90626 27.1442 6.90626C23.6755 7.00001 20.863 9.81251 20.863 13.1875ZM50.6755 34.5625C50.488 34.5625 50.3005 34.5625 50.113 34.5625C45.988 34.5625 42.1442 32.7813 39.4255 29.6875C38.3942 30.8125 37.1755 31.75 35.863 32.5938C33.5192 34.0938 30.8005 34.75 27.988 34.5625L28.0817 42.8125C28.1755 48.9063 31.9255 54.25 37.5505 56.4063L39.3317 57.0625L41.113 56.4063C46.738 54.25 50.488 48.8125 50.5817 42.8125L50.6755 34.5625Z" fill="currentColor"/>
</svg>
