<svg width="64" height="64" viewBox="0 0 64 64" fill="none" xmlns="http://www.w3.org/2000/svg">
<path d="M52 17.4873L51.7519 32.125C51.5865 42.5451 45.136 51.8074 35.3775 55.6115L31.9868 56.9347C31.9041 56.9347 31.7387 56.9347 31.4906 56.9347C30.6636 56.9347 30.002 56.2731 30.002 55.4461V50.2361V46.5146C28.5135 46.3492 27.0249 45.7703 25.7844 44.8607C24.2958 43.7856 23.3034 42.0489 23.3034 40.1468C23.3034 39.3198 23.965 38.6582 24.7093 38.6582C25.4536 38.6582 26.1979 39.3198 26.1979 40.0641V40.1468C26.1979 42.0489 28.5135 43.6202 31.2425 43.6202C33.9716 43.6202 36.2872 42.0489 36.2872 40.1468C36.2872 38.2447 33.9716 36.6734 31.2425 36.6734C31.0771 36.6734 30.9117 36.6734 30.829 36.5907C29.0097 36.508 27.273 35.9292 25.7844 34.8541C23.2207 33.1174 22.5591 29.5613 24.2958 26.9977C24.7093 26.4188 25.2055 25.9226 25.7844 25.5091C27.0249 24.5994 28.4308 24.0205 30.002 23.8551V20.5471C30.002 19.7201 30.6636 19.0585 31.4079 19.0585C32.1522 19.0585 32.8965 19.7201 32.8965 20.4644V20.5471V23.8551C34.3024 24.1032 35.5429 24.5994 36.7007 25.4264C38.1893 26.5015 39.1816 28.2381 39.1816 30.1402C39.1816 30.9672 38.5201 31.6288 37.6931 31.5461C36.8661 31.5461 36.2872 30.8845 36.2872 30.1402C36.2872 28.2381 33.9716 26.6669 31.2425 26.6669C28.5135 26.6669 26.1979 28.2381 26.1979 30.1402C26.1979 32.0423 28.5135 33.6136 31.2425 33.6136C31.4079 33.6136 31.5733 33.6136 31.656 33.6963C33.4754 33.779 35.2121 34.3579 36.7007 35.433C39.2643 37.1696 39.9259 40.7257 38.1893 43.2894C37.7758 43.8683 37.2796 44.3645 36.7007 44.778C35.5429 45.6049 34.3024 46.1838 32.8965 46.3492V50.0707V53.1306L34.3024 52.6344C42.9031 49.3264 48.6093 41.0565 48.7747 31.8769L48.9401 18.8931C45.2187 19.2239 41.5799 18.4797 38.272 16.8257C35.6256 15.5025 33.31 13.6004 31.4906 11.2848C29.6713 13.6004 27.3557 15.5025 24.7093 16.8257C21.8975 18.2316 18.755 18.9758 15.6124 18.9758C15.1162 18.9758 14.5373 18.9758 14.0411 18.8931L14.2065 31.8769C14.3719 40.5603 19.2512 48.334 26.9422 52.0555C27.6865 52.3863 28.0173 53.296 27.6865 54.0402C27.3557 54.7845 26.446 55.1153 25.7017 54.7845C25.7017 54.7845 25.7017 54.7845 25.619 54.7845C17.0183 50.4842 11.3948 41.7181 11.3121 32.0423L11.064 17.4873C11.064 16.6603 11.7256 15.9987 12.5525 15.9987C12.6352 15.9987 12.6352 15.9987 12.7179 15.9987L14.3719 16.1641C17.5145 16.4122 20.6571 15.8333 23.4688 14.3447C26.2806 12.9388 28.6789 10.7059 30.3328 8.05957C30.4982 7.56337 30.9944 7.31528 31.4906 7.31528C31.9868 7.31528 32.483 7.56337 32.7311 7.97687C34.3851 10.6232 36.7834 12.8561 39.5951 14.262C42.4069 15.6679 45.5495 16.3295 48.692 16.0814L50.346 15.916C51.173 15.8333 51.8346 16.4949 51.9173 17.2392C52 17.4046 52 17.4046 52 17.4873Z" fill="currentColor"/>
</svg>
