<svg width="64" height="64" viewBox="0 0 64 64" fill="none" xmlns="http://www.w3.org/2000/svg">
<path d="M57.5655 58.0935C57.3852 58.7247 56.8442 59.0854 56.213 59.1755C55.8524 59.1755 55.5819 59.1755 55.2212 59.1755C53.7786 59.1755 52.4261 58.905 51.0736 58.4542C49.3604 57.9132 47.7375 57.0115 46.2047 55.9296C44.221 56.4706 42.1472 56.741 40.0734 56.741C35.5651 56.8312 31.147 55.5689 27.5404 52.9541C24.1141 50.5196 21.6796 47.0032 20.6878 42.9457C20.5074 42.1342 21.0484 41.3227 21.8599 41.1424C22.6714 40.9621 23.4829 41.503 23.6632 42.3145C24.4747 45.6507 26.4584 48.536 29.3437 50.5196C32.4995 52.6836 36.1963 53.8557 39.9832 53.7656C41.9669 53.7656 43.9505 53.4951 45.844 52.8639C46.385 52.6836 46.926 52.7738 47.3768 53.1344C48.8195 54.3066 50.5326 55.2082 52.3359 55.7492C51.5244 54.4869 50.9834 53.1344 50.7129 51.6016C50.5326 51.0606 50.8031 50.4295 51.2539 50.0688C52.8769 48.8065 54.3196 47.1835 55.2212 45.3802C56.213 43.5769 56.6639 41.5932 56.6639 39.6096C56.6639 32.9373 51.2539 27.347 43.8603 25.8142C43.5898 26.9864 43.2292 28.0684 42.6882 29.1504C41.6062 31.2242 40.1636 33.1176 38.4504 34.6505C34.5733 37.8964 29.6142 39.6997 24.5649 39.6096C23.5731 39.6096 22.6714 39.5194 21.6796 39.3391C20.8681 39.2489 20.2369 38.4374 20.4173 37.6259C21.5894 28.97 29.9748 22.3879 40.0734 22.3879C40.5242 22.3879 40.8849 22.3879 41.3357 22.3879C41.3357 14.5435 33.852 8.23192 24.6551 8.23192C15.4582 8.23192 7.97441 14.5435 7.97441 22.3879C7.97441 24.2814 8.33507 26.2651 9.14656 27.9782C9.95805 29.6913 11.2204 31.2242 12.8434 32.3963C13.2942 32.757 13.5647 33.3881 13.3843 33.9291C13.0237 35.3718 12.4827 36.7243 11.7614 38.0768C13.5647 37.5358 15.2778 36.6341 16.7205 35.462C17.3516 34.921 18.3435 35.0111 18.8845 35.6423C19.4254 36.2734 19.3353 37.2653 18.614 37.8063C16.991 39.1587 15.0975 40.1506 13.1138 40.8719C11.4909 41.4129 9.77772 41.6834 7.97441 41.5031C7.16292 41.4129 6.53176 40.6916 6.62192 39.7899C6.62192 39.4292 6.89242 38.9784 7.16292 38.7981C8.60557 37.5358 9.68755 35.9128 10.2285 34.1095C8.69573 32.757 7.34325 31.134 6.44159 29.2405C5.44977 27.0765 4.90877 24.7322 4.99894 22.2978C4.99894 19.9535 5.53993 17.6091 6.62192 15.5353C7.70391 13.4615 9.14656 11.568 10.8597 10.0352C14.7368 6.78927 19.6959 4.98595 24.7452 5.07612C29.7945 4.98595 34.7536 6.78927 38.6307 10.0352C40.434 11.568 41.8767 13.3714 42.8685 15.5353C43.9505 17.6091 44.4915 19.9535 44.4915 22.2978C44.4915 22.3879 44.4915 22.5683 44.4915 22.6584C48.008 23.2896 51.3441 24.9126 54.0491 27.2569C55.8524 28.7897 57.295 30.6832 58.377 32.757C59.459 34.8308 60 37.1751 60 39.5194C59.9098 44.2982 57.836 48.7163 54.1392 51.7819C54.6802 53.5852 55.7622 55.2082 57.1147 56.3804C57.5655 56.8312 57.7459 57.4624 57.5655 58.0935ZM41.0652 25.3634C40.7947 25.3634 40.5242 25.3634 40.2537 25.3634C36.1963 25.3634 32.229 26.6257 28.983 29.0602C26.5485 30.8635 24.7452 33.4783 23.9337 36.4538C24.2042 36.4538 24.4747 36.4538 24.7452 36.4538C32.6798 36.4538 39.3521 31.7652 41.0652 25.3634Z" fill="currentColor"/>
</svg>
