<svg width="64" height="64" viewBox="0 0 64 64" fill="none" xmlns="http://www.w3.org/2000/svg">
<path d="M58.9121 54.5188C57.1475 55.1604 55.2226 55.4812 53.2977 55.4812C50.7312 55.4812 48.2448 54.8396 45.9991 53.5563C42.9513 55.2406 39.5025 56.1229 36.0537 56.0427C31.0008 56.1229 26.0281 54.198 22.2585 50.8294C20.494 49.2253 19.0503 47.3003 18.0076 45.1348C16.9649 42.8891 16.4837 40.4829 16.4837 38.0768C16.4837 33.6655 18.2482 29.4147 21.296 26.2867C24.424 22.9983 28.5946 20.913 33.0861 20.3515C33.9684 20.1911 34.6902 20.8328 34.8506 21.6348C35.011 22.4369 34.3694 23.2389 33.5673 23.3993C29.7977 23.8806 26.2687 25.6451 23.6219 28.4522C21.1356 31.0188 19.6919 34.5478 19.6919 38.157C19.6919 46.3379 27.0707 53.0751 36.1339 53.0751C39.3421 53.0751 42.5503 52.1928 45.2772 50.5085C45.7585 50.1877 46.4001 50.1877 46.8813 50.5085C48.2448 51.3908 49.8489 52.0324 51.453 52.273C52.1748 52.4335 52.9769 52.4335 53.6987 52.4335C52.1748 51.2304 50.8916 49.7867 49.7687 48.1826C49.3677 47.6212 49.3677 46.8993 49.7687 46.3379C51.5332 43.9317 52.4957 41.1246 52.4957 38.157C52.4957 34.5478 51.052 31.0188 48.4854 28.372C45.8387 25.6451 42.2295 23.8806 38.4598 23.3993C37.4974 23.2389 36.9359 22.5171 37.0161 21.6348C36.4547 18.6672 34.8506 16.1007 32.5247 14.256C29.9581 12.2509 26.6697 11.128 23.3813 11.128C15.7619 11.128 9.5861 16.7423 9.5861 23.6399C9.5861 26.1263 10.3881 28.6126 11.912 30.6178C12.3131 31.1792 12.3131 31.901 11.912 32.4625C11.11 33.5051 10.2277 34.4676 9.18508 35.3498C10.5486 35.5102 11.912 35.2696 13.0349 34.5478C13.7567 34.1468 14.7192 34.3874 15.1202 35.1894C15.5213 35.9915 15.2806 36.8737 14.4786 37.2748C13.1151 38.0768 11.511 38.4778 9.90692 38.4778C7.982 38.3976 6.05709 37.9966 4.21238 37.355C3.41033 37.0341 3.00931 36.1519 3.24992 35.3498C3.41033 34.7884 3.89156 34.4676 4.45299 34.3072C6.13729 33.9864 7.74139 32.5427 8.70385 31.4198C7.26016 29.0939 6.45811 26.3669 6.45811 23.6399C6.45811 19.3891 8.30282 15.3788 11.4308 12.5717C14.7994 9.6041 19.0503 8 23.3813 8C27.3916 8 31.3216 9.36348 34.4496 11.7696C37.2568 13.9352 39.1817 16.9829 39.9837 20.4317C44.0742 21.1536 47.7636 23.1587 50.651 26.2065C53.7789 29.4147 55.4632 33.6655 55.5434 38.0768C55.5434 41.285 54.6612 44.413 52.8967 47.1399C54.0998 48.744 56.3455 51.07 58.6714 51.471C59.5537 51.6314 60.0349 52.4335 59.8745 53.3157C59.7943 53.8771 59.3933 54.3584 58.9121 54.5188Z" fill="currentColor"/>
<path d="M37.4974 40.8038V42.4079C37.4974 43.2901 36.7755 43.9317 35.9735 43.9317C35.1714 43.9317 34.4496 43.2099 34.4496 42.4079V40.8038C34.4496 38.7986 35.7329 37.0341 37.5776 36.3925C38.8609 36.0717 39.8233 34.8686 39.9837 33.5051C39.9837 31.7406 38.2192 30.3771 35.9735 30.3771C33.808 30.3771 31.9632 31.8208 31.9632 33.5051C31.9632 34.3874 31.2414 35.029 30.4394 35.029C29.5571 35.029 28.9155 34.3072 28.9155 33.5051C28.9155 31.7406 29.7175 30.1365 31.081 29.0137C32.4445 27.8908 34.209 27.2491 35.9735 27.2491C37.738 27.2491 39.5025 27.8106 40.866 29.0137C42.2295 30.1365 43.0315 31.7406 43.0315 33.5051C42.9513 36.1519 41.1868 38.558 38.6202 39.2799C37.8984 39.6007 37.4974 40.1621 37.4974 40.8038Z" fill="currentColor"/>
<path d="M37.4973 46.6587V47.3004C37.4973 48.1826 36.7755 48.8242 35.9734 48.8242C35.0912 48.8242 34.4496 48.1024 34.4496 47.3004V46.6587C34.4496 45.7765 35.1714 45.1348 35.9734 45.1348C36.7755 45.1348 37.4973 45.7765 37.4973 46.6587Z" fill="currentColor"/>
</svg>
