<svg width="64" height="64" viewBox="0 0 64 64" fill="none" xmlns="http://www.w3.org/2000/svg">
<path d="M49.7321 46.1829C50.445 48.7969 51.9501 51.0941 53.9304 52.8368C54.5641 53.3913 54.6434 54.3419 54.0889 54.9756C53.8512 55.2924 53.4551 55.4509 53.0591 55.5301C52.663 55.5301 52.2669 55.6093 51.7917 55.6093C49.9698 55.6093 48.2271 55.2924 46.5636 54.7379C43.9495 53.8666 41.5731 52.52 39.4344 50.7773C38.8007 50.2228 38.7214 49.2722 39.1967 48.6385C39.672 48.0048 40.7018 47.9256 41.3355 48.4009C43.1574 49.9059 45.2169 51.0941 47.4349 51.807C48.0686 52.0447 48.6231 52.2031 49.2568 52.2823C47.9102 50.3812 46.9596 48.2424 46.4052 45.9452C46.2467 45.3907 46.4844 44.757 46.9596 44.4402C49.1776 42.7767 51.0787 40.5587 52.3462 38.1031C53.6136 35.6475 54.3265 32.9542 54.3265 30.261C54.3265 19.6464 44.2664 11.0913 31.8299 11.0913C19.3934 11.0913 9.49167 19.6464 9.49167 30.1818C9.49167 40.7171 19.5518 49.3514 31.9883 49.3514C33.0181 49.3514 34.0478 49.2722 35.0776 49.0346C35.8698 48.7969 36.7411 49.193 36.9787 49.9851C37.2164 50.7773 36.8203 51.6486 36.0282 51.8862C35.949 51.8862 35.8698 51.8862 35.7905 51.9655C34.5231 52.2031 33.2557 52.3615 31.9883 52.3615C25.4136 52.4407 19.0765 50.1435 14.0068 45.9452C11.7097 43.9649 9.80853 41.5885 8.4619 38.8952C5.76864 33.4295 5.76864 26.934 8.4619 21.4683C9.80853 18.775 11.7097 16.3986 14.0068 14.4183C19.0765 10.22 25.4136 7.92277 31.9883 8.00198C38.563 7.92277 44.9001 10.22 49.9698 14.4183C52.2669 16.3986 54.1681 18.775 55.5147 21.4683C58.3664 27.1716 58.208 33.8256 55.1978 39.4497C53.772 42.0638 51.9501 44.2818 49.7321 46.1829Z" fill="currentColor"/>
<path d="M28.1068 26.3003C28.1068 27.7261 29.9287 28.9143 31.9882 28.9143C32.1467 28.9143 32.3051 28.9143 32.3843 28.9936C33.9686 29.0728 35.4736 29.548 36.6618 30.4986C38.0085 31.4492 38.8006 32.9542 38.8006 34.6177C38.8006 36.2812 37.9292 37.7862 36.6618 38.7368C35.7905 39.4497 34.6815 39.8458 33.5725 40.0834V43.0143C33.5725 43.8065 32.9388 44.5194 32.0674 44.5194C31.2753 44.5194 30.5624 43.8857 30.5624 43.0143V40.1626C29.295 40.0042 28.186 39.5289 27.1562 38.7368C25.8096 37.7862 25.0174 36.2812 24.9382 34.6177C24.9382 33.8256 25.5719 33.1127 26.4433 33.1127C27.3146 33.1127 27.9483 33.7464 27.9483 34.6177C27.9483 36.0435 29.7703 37.2318 31.8298 37.2318C33.8894 37.2318 35.7113 36.0435 35.7113 34.6177C35.7113 33.1919 33.8894 32.0037 31.8298 32.0037C31.6714 32.0037 31.513 32.0037 31.4337 31.9245C29.8495 31.8452 28.3444 31.37 27.077 30.4194C25.7304 29.4688 24.9382 27.9638 24.9382 26.3003C24.9382 24.6368 25.8096 23.1318 27.077 22.1812C28.1068 21.4683 29.2158 20.9138 30.4832 20.7554V18.2997C30.4832 17.5076 31.1169 16.7947 31.9882 16.7947C32.7804 16.7947 33.4933 17.4284 33.4933 18.2997V20.8346C34.6023 21.0722 35.6321 21.5475 36.5826 22.1812C37.9292 23.1318 38.7214 24.6368 38.7214 26.3003C38.7214 27.0924 38.0877 27.8053 37.2163 27.8053C36.4242 27.8053 35.7113 27.1716 35.7113 26.3003C35.7113 24.8745 33.8894 23.6862 31.8298 23.6862C29.7703 23.6862 28.1068 24.8745 28.1068 26.3003Z" fill="currentColor"/>
</svg>
