<svg width="64" height="64" viewBox="0 0 64 64" fill="none" xmlns="http://www.w3.org/2000/svg">
<path d="M16.5041 57H8.4876C7.66116 57 7 56.3339 7 55.5012V21.7794C7 21.363 7.16529 20.9467 7.49587 20.6137L23.1983 7.37469C23.7769 6.8751 24.5207 6.8751 25.0992 7.37469L29.6446 11.1216V8.54038C29.6446 7.70774 30.3058 7.04163 31.1322 7.04163H35.9256C36.7521 7.04163 37.4132 7.70774 37.4132 8.54038L37.3306 17.4496L40.8843 20.4471C41.2149 20.6969 41.3802 21.1132 41.3802 21.5296L41.5455 32.5204C41.5455 33.353 40.9669 34.0192 40.1405 34.0192C39.314 34.0192 38.6529 33.4363 38.6529 32.6037C38.6529 32.6037 38.6529 32.6037 38.6529 32.5204L38.405 22.2789L34.8512 19.1982C34.5207 18.9484 34.3554 18.4488 34.3554 18.0325L34.438 9.95587H32.6198V14.2023C32.6198 15.035 31.9587 15.7011 31.1322 15.7011C30.8017 15.7011 30.4711 15.6178 30.2231 15.368L24.2727 10.4555L9.97521 22.4455V54.0025H15.0992V43.5112C15.0992 39.7644 18.0744 36.7669 21.876 36.7669C25.6777 36.7669 28.5702 39.7644 28.5702 43.5112V53.9192H54.0248V41.6794L44.6859 36.8501L35.595 41.9292V50.6719C35.595 51.5046 34.9339 52.1707 34.1074 52.0874C33.281 52.0874 32.7025 51.4213 32.7025 50.6719V41.0966C32.7025 40.5137 33.0331 40.0974 33.4463 39.7644L43.9422 33.9359C44.3554 33.6861 44.8512 33.6861 45.3471 33.9359L56.1736 39.5146C56.6694 39.7644 57 40.2639 57 40.8468V55.418C57 56.2506 56.3388 56.9167 55.5124 56.9167H27C26.1736 56.9167 25.5124 56.2506 25.5124 55.418V43.5112C25.5124 41.4296 23.8595 39.6811 21.7107 39.6811C19.562 39.6811 17.9091 41.3464 17.9091 43.5112V55.5012C17.9917 56.3339 17.3306 57 16.5041 57Z" fill="currentColor"/>
</svg>
