<svg width="64" height="64" viewBox="0 0 64 64" fill="none" xmlns="http://www.w3.org/2000/svg">
<path d="M55.6956 9.44762V50.4635C55.6956 53.6805 53.122 56.254 49.9051 56.254H21.1135C20.3093 56.254 19.6659 55.6106 19.6659 54.8064C19.6659 54.0021 20.3093 53.3588 21.1135 53.3588H49.9051C51.5136 53.3588 52.8003 52.072 52.8003 50.4635V10.8952H19.103V50.4635C19.103 50.7852 19.103 51.1069 19.0225 51.4286C19.0225 51.509 19.0225 51.509 19.0225 51.5894C18.4596 54.2434 16.1273 56.1736 13.3929 56.1736C10.176 56.1736 7.60242 53.6 7.60242 50.3831V18.0529C7.60242 17.2487 8.2458 16.6053 9.05004 16.6053H13.4733C14.2776 16.6053 14.9209 17.2487 14.9209 18.0529C14.9209 18.8571 14.2776 19.5005 13.4733 19.5005H10.4977V50.4635C10.4977 52.072 11.7844 53.3588 13.3929 53.3588C15.0014 53.3588 16.2881 52.072 16.2881 50.4635V9.44762C16.2881 8.64339 16.9315 8 17.7358 8H54.2479C55.0522 8 55.6956 8.64339 55.6956 9.44762Z" fill="currentColor"/>
<path d="M23.3654 32.2878V16.4444C23.3654 15.6402 24.0088 14.9968 24.813 14.9968H35.3485C36.1527 14.9968 36.7961 15.6402 36.7961 16.4444V32.2878C36.7961 33.0921 36.1527 33.7355 35.3485 33.7355H24.813C24.0088 33.7355 23.3654 33.0117 23.3654 32.2878ZM26.2606 30.8402H33.9008V17.8921H26.2606V30.8402V30.8402Z" fill="currentColor"/>
<path d="M39.5305 24.3259C39.5305 23.5217 40.1739 22.8783 40.9781 22.8783H47.3315C48.1358 22.8783 48.7792 23.5217 48.7792 24.3259C48.7792 25.1302 48.1358 25.7736 47.3315 25.7736H40.9781C40.1739 25.7736 39.5305 25.1302 39.5305 24.3259Z" fill="currentColor"/>
<path d="M23.285 40.0889C23.285 39.2847 23.9284 38.6413 24.7326 38.6413H47.3316C48.1358 38.6413 48.7792 39.2847 48.7792 40.0889C48.7792 40.8931 48.1358 41.5365 47.3316 41.5365H24.7326C23.9284 41.5365 23.285 40.8931 23.285 40.0889Z" fill="currentColor"/>
<path d="M23.285 47.4879C23.285 46.6836 23.9284 46.0402 24.7326 46.0402H47.3316C48.1358 46.0402 48.7792 46.6836 48.7792 47.4879C48.7792 48.2921 48.1358 48.9355 47.3316 48.9355H24.7326C23.9284 48.9355 23.285 48.2921 23.285 47.4879Z" fill="currentColor"/>
<path d="M39.5305 32.2074C39.5305 31.4032 40.1739 30.7598 40.9781 30.7598H47.3315C48.1358 30.7598 48.7792 31.4032 48.7792 32.2074C48.7792 33.0117 48.1358 33.655 47.3315 33.655H40.9781C40.1739 33.655 39.5305 33.0117 39.5305 32.2074Z" fill="currentColor"/>
<path d="M39.5305 16.4444C39.5305 15.6402 40.1739 14.9968 40.9781 14.9968H47.3315C48.1358 14.9968 48.7792 15.6402 48.7792 16.4444C48.7792 17.2487 48.1358 17.8921 47.3315 17.8921H40.9781C40.1739 17.8921 39.5305 17.2487 39.5305 16.4444Z" fill="currentColor"/>
</svg>
