<svg width="64" height="64" viewBox="0 0 64 64" fill="none" xmlns="http://www.w3.org/2000/svg">
<path d="M59.9883 38.3857C59.9883 39.1864 59.2855 39.8269 58.5046 39.8269H58.4265C57.5676 39.8269 56.9429 39.1063 57.021 38.2256C57.1771 35.1831 56.0839 32.2207 53.9756 30.059C52.7262 28.6978 51.1644 27.657 49.4465 27.0165C47.6505 26.2959 45.7765 25.8956 43.9024 25.8956C39.8419 25.8155 35.8594 27.5769 33.2045 30.7795L33.1264 30.8596C33.1264 30.8596 33.1264 30.8596 33.0483 30.9397C32.9702 31.0197 32.8921 31.0197 32.814 31.0998C32.814 31.0998 32.736 31.0998 32.736 31.1799H32.6579H32.5798H32.5017H32.4236C32.4236 31.1799 32.3455 31.1799 32.2674 31.1799H32.1893H32.1113H32.0332H31.9551H31.877H31.7989H31.7208H31.6427H31.5647H31.4866C31.4866 31.1799 31.4085 31.1799 31.4085 31.0998C31.4085 31.0998 31.3304 31.0998 31.3304 31.0197L31.2523 30.9397C31.2523 30.9397 31.2523 30.9397 31.1742 30.8596C31.0961 30.7795 31.0961 30.7795 31.018 30.6995C28.285 27.5769 24.3807 25.7354 20.3201 25.8155C16.9624 25.7354 13.6828 26.9364 11.1059 29.1782C8.52904 31.6603 7.12347 35.2632 7.20156 38.9462C7.20156 39.6667 7.20156 40.3873 7.20156 40.9478C7.20156 43.1896 8.06052 45.3514 9.70034 46.9527C12.5896 49.9151 16.3377 51.8366 20.3201 52.6373C20.4763 50.3154 21.4134 48.0736 23.0532 46.3121C24.2245 45.0311 25.7081 43.9903 27.2699 43.3497C27.348 43.3497 27.4261 43.2697 27.5041 43.2697C24.9273 40.5475 25.0834 36.1439 27.7384 33.5818C30.3934 31.0197 34.6881 31.0998 37.1869 33.822C39.6857 36.4641 39.6857 40.6275 37.1869 43.2697C37.265 43.2697 37.3431 43.3497 37.4212 43.3497C38.9829 43.9903 40.4666 45.0311 41.6379 46.3121C43.6681 48.554 44.6052 51.5164 44.2928 54.5588C44.2147 55.3595 43.59 56 42.8092 56C42.7311 56 42.7311 56 42.653 56C41.794 55.9199 41.2474 55.1993 41.3255 54.3186C41.5598 52.1569 40.857 49.9951 39.3733 48.3938C37.4993 46.3922 34.9224 45.3514 32.2674 45.3514C29.6125 45.3514 27.0356 46.3922 25.1615 48.3938C23.756 49.9951 23.0532 52.1569 23.2874 54.3186C23.3655 55.1993 22.7408 55.9199 21.96 56C21.8819 56 21.7257 56 21.6476 56C16.3377 55.4395 11.4182 53.0376 7.59199 49.1945C5.24939 47.1128 4 44.1504 4 41.1079C4 40.4674 4 39.8269 4 39.0262C4 34.1423 5.63982 29.9789 8.84138 27.0165C10.4812 25.4953 12.3553 24.3743 14.3855 23.7338C10.7155 20.5312 10.325 14.9267 13.4485 11.1636C16.572 7.40057 22.0381 7.00024 25.7081 10.2028C29.3782 13.4054 29.7687 19.01 26.6452 22.773C26.3328 23.0933 26.0205 23.4936 25.7081 23.7338C28.0507 24.5345 30.1591 25.8155 31.9551 27.4969C33.7511 25.7354 35.8594 24.4544 38.202 23.7338C34.532 20.5312 34.0634 14.9267 37.1869 11.1636C40.3104 7.40057 45.7765 6.92018 49.4465 10.1228C53.1166 13.3254 53.5851 18.9299 50.4617 22.693C50.1493 23.0933 49.837 23.4136 49.4465 23.7338C49.837 23.8139 50.1493 23.974 50.4617 24.1341C52.57 25.0149 54.4441 26.2959 56.0058 27.8972C58.7389 30.6995 60.1444 34.4625 59.9883 38.3857ZM32.1113 42.469C34.1415 42.469 35.7813 40.7877 35.7813 38.706C35.7813 36.6243 34.1415 34.9429 32.1113 34.9429C30.081 34.9429 28.4412 36.6243 28.4412 38.706C28.3631 40.7877 30.0029 42.469 32.1113 42.469ZM20.0859 22.8531C23.2874 22.8531 25.7862 20.211 25.7862 17.0084C25.7862 13.8058 23.2094 11.1636 20.0859 11.1636C16.9624 11.1636 14.3855 13.8058 14.3855 17.0084C14.3855 20.211 16.9624 22.8531 20.0859 22.8531ZM43.8243 22.8531C47.0258 22.8531 49.5246 20.211 49.5246 17.0084C49.5246 13.8058 46.9478 11.0836 43.8243 11.0836C40.7008 11.0836 38.1239 13.7257 38.1239 16.9283C38.1239 20.211 40.7008 22.8531 43.8243 22.8531Z" fill="currentColor"/>
</svg>
