<svg width="64" height="64" viewBox="0 0 64 64" fill="none" xmlns="http://www.w3.org/2000/svg">
<path d="M58 37.3383C58 38.9116 57.4401 40.4134 56.4603 41.5576C56.4603 41.5576 56.4603 41.5576 56.3903 41.6292L48.1319 50.2109C48.0619 50.2824 48.0619 50.2824 47.9919 50.354L45.7524 52.5709C45.4724 52.857 45.1225 53 44.7725 53H7.39973C6.62988 53 6 52.3564 6 51.5697C6 41.8437 12.3688 33.3334 21.537 30.6874C16.428 27.5407 14.7483 20.6753 17.8277 15.3832C20.9071 10.0911 27.6258 8.44629 32.8048 11.5929C37.9838 14.7396 39.5935 21.605 36.5141 26.8971C35.6043 28.3989 34.3445 29.6862 32.8748 30.6159C33.7847 30.9019 34.6245 31.188 35.4643 31.5456C36.1642 31.8316 36.5841 32.6183 36.3042 33.405C36.0242 34.1201 35.2544 34.5492 34.4845 34.2631C34.4145 34.2631 34.4145 34.1916 34.3445 34.1916C24.9664 30.1868 14.1884 34.6207 10.2692 44.2037C9.49933 46.0631 9.00942 48.0655 8.86945 50.0679H44.2126L45.8923 48.3515C45.8923 48.28 45.9623 48.28 45.9623 48.2085L54.3607 39.4837C55.6205 38.0534 55.4805 35.8365 54.0808 34.6207C53.4509 34.0486 52.681 33.7625 51.8412 33.7625C50.2315 33.691 48.8318 34.6922 48.4118 36.2655C48.2719 36.9092 47.712 37.4098 47.0821 37.4098C46.4522 37.4098 45.8923 36.9807 45.7524 36.2655C45.2624 34.6922 43.8627 33.691 42.253 33.7625C40.3634 33.7625 38.8937 35.3358 38.8937 37.1952C38.8937 38.0534 39.1736 38.8401 39.7335 39.4837L45.2624 45.2049C45.8223 45.7055 45.8923 46.6352 45.4024 47.2073C44.9125 47.7794 44.0027 47.8509 43.4428 47.3503C43.3728 47.2788 43.3728 47.2788 43.3028 47.2073L37.7039 41.4146L37.5639 41.4861C35.2544 38.9116 35.4643 34.9068 38.0538 32.5468C39.1736 31.4741 40.6433 30.9019 42.183 30.9019C44.0027 30.9019 45.7524 31.6886 47.0121 33.0474C47.2921 32.7613 47.572 32.4753 47.9219 32.1892C49.0417 31.331 50.4415 30.9019 51.8412 30.9019C55.2005 30.9734 58 33.834 58 37.3383ZM27.1359 29.4001C31.6151 29.4001 35.2544 25.6814 35.2544 21.1044C35.2544 16.5275 31.6151 12.8802 27.1359 12.8802C22.6568 12.8802 19.0875 16.599 19.0175 21.1044C19.0875 25.6814 22.6568 29.4001 27.1359 29.4001Z" fill="currentColor"/>
</svg>
