<svg width="64" height="64" viewBox="0 0 64 64" fill="none" xmlns="http://www.w3.org/2000/svg">
<path d="M57.6985 41.4526C57.3077 42.5241 56.4478 43.2895 55.4316 43.7488C53.1648 44.4376 50.8198 44.7438 48.3966 44.6672C46.0516 44.7438 43.6284 44.3611 41.4397 43.6722C40.3453 43.213 39.5637 42.3711 39.0947 41.2995C38.6257 40.1514 38.7038 38.8503 39.251 37.7022L46.9896 22.7005C46.1297 21.1697 44.4882 20.1747 42.6904 20.0982L39.4855 20.0216C37.6095 20.0216 35.4208 19.8686 33.7793 19.7155C33.7011 19.8686 33.623 20.0216 33.5448 20.2512L34.561 20.9401C36.2025 22.1647 37.1405 24.0017 37.0623 26.0682L36.906 42.1414C36.906 43.6722 36.3588 45.203 35.2645 46.3511L46.2079 50.8669C47.1459 51.2496 47.6931 52.2446 47.4586 53.3161C47.3022 54.3112 46.4424 55 45.4262 55H19.0057C17.9895 55 17.1296 54.3112 16.9733 53.3161C16.7388 52.3211 17.286 51.3261 18.224 50.8669L29.1674 46.3511C28.1512 45.203 27.5259 43.7488 27.5259 42.1414L27.3696 26.0682C27.3696 24.0782 28.4639 22.624 29.4801 21.3993L28.1512 20.787C27.0569 20.2512 25.8062 20.0216 24.5555 20.0216L21.3507 20.0982C19.5528 20.1747 17.9113 21.1697 17.0515 22.7005L24.79 37.7022C25.3372 38.8503 25.4154 40.1514 24.9464 41.2995C24.5555 42.3711 23.6957 43.213 22.6014 43.6722C20.3345 44.3611 17.9895 44.7438 15.6445 44.6672C13.2994 44.7438 10.8763 44.4376 8.6094 43.7488C7.51506 43.3661 6.73338 42.5241 6.34255 41.4526C5.87354 40.3045 5.87354 39.0033 6.42071 37.9318L13.6903 22.777L12.7523 20.9401C12.3614 20.2512 12.6741 19.4093 13.3776 19.0266C14.0811 18.6439 14.941 18.9501 15.3318 19.6389L15.4881 19.8686C16.9733 18.2612 19.0057 17.2662 21.2725 17.2662L24.4774 17.1897C26.1971 17.1897 27.8386 17.4958 29.3237 18.1847L29.4019 18.2612C29.2456 18.1082 29.1674 17.9551 29.0111 17.7255C28.3857 16.6539 28.0731 15.5058 28.0731 14.2812C28.0731 13.0566 28.3857 11.9085 29.0111 10.8369C29.6364 9.76539 30.8089 9.07654 31.9814 9C33.2321 9.07654 34.3265 9.76539 34.8736 10.8369C35.499 11.9085 35.8116 13.0566 35.8116 14.2812C35.8116 15.1997 35.6553 16.1181 35.2645 16.9601C36.5933 17.0366 38.1567 17.1897 39.4855 17.1897L42.6904 17.2662C44.8791 17.3428 46.9896 18.2612 48.4748 19.8686L48.6311 19.5624C49.0219 18.8735 49.8818 18.5674 50.5853 18.9501C51.2888 19.3328 51.6014 20.1747 51.2106 20.8636L50.1944 22.777L57.464 37.9318C58.0893 39.0033 58.1675 40.3045 57.6985 41.4526ZM15.41 25.9151L9.0784 39.0799C8.92207 39.4626 8.8439 39.9218 9.0784 40.3045C9.15657 40.6107 9.39107 40.8403 9.70374 40.9933C12.4396 42.0649 18.7712 41.9884 21.5852 40.9168C21.8978 40.7637 22.1324 40.5341 22.2105 40.228C22.3669 39.8453 22.3669 39.386 22.1324 38.9268L15.41 25.9151ZM31.1216 14.2812C31.1216 15.8885 31.8251 16.6539 31.9814 16.6539H32.0596C32.1378 16.5774 32.1378 16.5008 32.2159 16.5008C32.6849 15.8885 32.9194 15.0466 32.9194 14.2812C32.9194 12.6739 32.2159 11.9085 31.9814 11.9085C31.7469 11.9085 31.1216 12.6739 31.1216 14.2812ZM32.2159 48.1115L22.7577 52.015H41.7524L32.2159 48.1115ZM32.8413 23.2363L32.0596 22.7005C31.9814 22.777 31.9033 22.9301 31.8251 23.0067C30.9653 24.0782 30.2618 24.9201 30.2618 25.9917L30.4181 42.0649C30.4181 43.2895 31.0434 44.4376 32.2159 44.9734C33.3103 44.4376 34.0138 43.2895 34.0138 42.0649L34.1701 25.9917C34.1701 24.9201 33.7011 23.9251 32.8413 23.2363ZM54.9626 39.0799L48.6311 25.9151L41.9087 38.9268C41.6742 39.3095 41.6742 39.7687 41.8305 40.228C41.9087 40.5341 42.1432 40.7637 42.4559 40.9168C44.41 41.5291 46.5206 41.8353 48.5529 41.7587C50.5071 41.8353 52.4613 41.5291 54.3373 40.9933C54.65 40.8403 54.8845 40.6107 54.9626 40.3045C55.119 39.9218 55.119 39.4626 54.9626 39.0799Z" fill="currentColor"/>
</svg>
